<svg width="1000" height="1000" viewBox="0 0 1000 1000" fill="none" xmlns="http://www.w3.org/2000/svg"><g transform="translate(-5.684341886080802e-14, 41.71855541718554) scale(1.2453300124533002)"><g clip-path="url(#clip0_147_9)">
<path d="M529.344 501.283L690.647 661.029L614.964 735.967L453.695 576.255C439.843 562.538 421.642 555.078 402.002 555.078C382.395 555.078 364.16 562.538 350.342 576.255L189.073 735.967L113.39 661.029L274.659 501.283H529.244H529.344Z" fill="#36F197"/>
<path d="M556.278 455.25L776.534 513.629L804.204 411.157L583.948 352.779C565.078 347.794 549.386 335.818 539.582 319.023C529.779 302.33 527.236 282.792 532.288 264.124L591.242 45.9674L487.789 18.6016L428.802 236.725L556.178 455.117L556.278 455.25Z" fill="#36F197"/>
<path d="M247.893 455.25L27.67 513.629L0 411.157L220.256 352.779C239.093 347.794 254.819 335.818 264.622 319.023C274.425 302.33 276.935 282.792 271.916 264.124L212.962 45.9674L316.415 18.6016L375.369 236.725L248.027 455.117L247.893 455.25Z" fill="#36F197"/>
</g><defs>
<clipPath id="clip0_147_9">
<rect width="803" height="736" fill="white"/>
</clipPath>
</defs></g></svg>