<svg width="1000" height="1000" viewBox="0 0 1000 1000" fill="none" xmlns="http://www.w3.org/2000/svg"><g transform="translate(2.347417840375556, 0) scale(4.694835680751174)"><mask id="mask0_8704_1884" style="mask-type:alpha" maskUnits="userSpaceOnUse" x="0" y="0" width="212" height="213">
<path d="M211.69 106.39C211.69 47.932 164.3 0.542969 105.85 0.542969C47.3901 0.542969 0 47.932 0 106.39C0 164.848 47.3901 212.237 105.85 212.237C164.3 212.237 211.69 164.848 211.69 106.39Z" fill="#0054FA"/>
</mask><g mask="url(#mask0_8704_1884)">
<g filter="url(#filter0_i_8704_1884)">
<path d="M166.93 235.222C165.86 235.222 164.96 235.222 164.17 235.222C164 235.222 163.83 235.222 163.67 235.222C162.9 235.222 162.12 235.211 161.36 235.19C157.16 235.072 152.93 234.613 148.78 233.811C144.43 234.57 140.03 234.987 135.66 235.051C135.2 235.051 134.74 235.062 134.25 235.062C133.75 235.062 133.86 235.062 133.68 235.062H133.55C132.35 235.062 131.16 235.062 129.95 235.051H129.78C128.51 235.051 127.09 235.04 125.78 235.04C124.46 235.04 124.83 235.04 124.36 235.04L76.07 235.222V234.762C72.97 234.57 69.89 234.196 66.83 233.64C62.19 234.484 57.4599 234.912 52.7499 234.912H36.1898C10.2498 234.912 -13.6001 223.055 -29.2601 202.378L-29.4 202.196C-45.63 180.642 -50.2301 152.438 -41.7101 126.736L-35.9 109.298C-33.53 102.167 -30.4902 95.206 -26.8402 88.588C-27.1902 85.488 -27.3702 82.355 -27.3702 79.244C-27.3702 74.037 -26.87 68.809 -25.88 63.699C-25.82 61.603 -25.68 59.508 -25.45 57.444C-24.13 45.395 -19.99 33.666 -13.46 23.456C-10.16 14.914 -5.63009 7.01303 -8.7738e-05 -0.0219727C16.7899 -21.095 42.9098 -33.679 69.8898 -33.679C96.8798 -33.679 81.1899 -33.134 86.7199 -32.065C91.1999 -31.199 94.78 -30.162 101.87 -27.991H101.88C102.81 -27.703 103.37 -27.532 103.71 -27.435C112.92 -24.891 121.68 -20.988 129.78 -15.846C135.92 -11.943 141.59 -7.35698 146.66 -2.22498C154.17 1.35703 161.25 5.80402 167.74 11.033C174.95 12.626 182.01 15.031 188.73 18.196C198.38 22.729 207.23 28.748 215.01 36.061C222.76 43.342 229.27 51.746 234.38 61.037C237.24 66.222 239.63 71.664 241.53 77.256C244.69 81.575 247.41 86.076 249.81 90.962C252.54 96.479 254.12 101.258 254.84 103.407L255.15 104.262L255.56 105.599C255.64 105.812 255.79 106.272 256.12 107.234L256.15 107.32C258.64 114.569 260.5 120.214 261.77 126.971L261.79 127.067C264.97 144.205 263.41 161.9 257.27 178.236C257.23 178.343 257.18 178.504 257.13 178.664L256.93 179.188C256.68 179.904 256.45 180.514 256.27 180.995C250.82 195.792 241.29 208.664 228.71 218.244C215.79 228.08 200.44 233.875 184.29 234.997L183.22 235.072L180.09 235.201H174.86C174.44 235.201 173.98 235.201 173.48 235.201C172.56 235.201 171.58 235.201 170.59 235.201H170.44C169.24 235.201 168.04 235.201 166.92 235.201L166.93 235.222Z" fill="#0054FA"/>
</g>
<path d="M69.8901 -33.0229C76.6401 -33.0229 80.7103 -32.9889 83.1103 -32.9209C83.8203 -32.9009 84.3803 -32.8779 84.8203 -32.8529C84.8003 -32.8189 84.7903 -32.7829 84.7903 -32.7449C84.7003 -32.3399 84.9403 -32.055 85.1203 -31.92C85.2903 -31.792 85.5002 -31.7039 85.7202 -31.6339C85.8302 -31.5969 85.9603 -31.5609 86.1103 -31.5259L86.6003 -31.42C91.0403 -30.562 94.5901 -29.534 101.68 -27.364L101.77 -27.3349H101.78C102.2 -27.2049 102.54 -27.0999 102.83 -27.0139L103.53 -26.8039L103.54 -26.8029C112.39 -24.3549 120.84 -20.6409 128.67 -15.7669L129.42 -15.2919C135.53 -11.4169 141.16 -6.86095 146.19 -1.76395L146.27 -1.68195L146.38 -1.63193C153.85 1.92707 160.88 6.34807 167.33 11.5441L167.45 11.6401L167.6 11.6731C174.31 13.1571 180.89 15.35 187.19 18.209L188.45 18.79C197.74 23.152 206.28 28.9011 213.83 35.8621L214.56 36.54C222.02 43.547 228.33 51.6011 233.33 60.4901L233.81 61.3531C236.65 66.5041 239.02 71.9111 240.9 77.4651L240.94 77.561L241 77.6431C243.94 81.6631 246.5 85.8411 248.77 90.3461L249.22 91.2521C251.93 96.7251 253.5 101.47 254.21 103.614L254.22 103.623V103.63L254.53 104.486L254.94 105.794V105.804L254.95 105.815C255.02 106.035 255.16 106.464 255.5 107.448V107.457L255.54 107.55C258.03 114.79 259.87 120.391 261.12 127.091V127.102V127.113L261.14 127.187C264.3 144.203 262.76 161.772 256.67 177.993C256.62 178.117 256.56 178.29 256.51 178.438L256.32 178.961V178.966C256.19 179.323 256.07 179.653 255.96 179.954L255.66 180.763L255.65 180.768C250.41 194.989 241.38 207.418 229.47 216.822L228.31 217.722C215.9 227.176 201.21 232.866 185.75 234.225L184.25 234.343L183.18 234.417L180.09 234.544H165.86L165.87 234.566H163.67C163.29 234.566 162.9 234.563 162.52 234.558L161.38 234.534C157.21 234.417 153.02 233.962 148.9 233.167L148.78 233.144L148.66 233.165C144.62 233.871 140.53 234.278 136.46 234.378L135.65 234.395C135.42 234.395 135.18 234.397 134.96 234.4C134.72 234.403 134.49 234.406 134.25 234.406H133.55C132.95 234.406 132.35 234.405 131.75 234.404L129.95 234.395H129.78C129.15 234.395 128.48 234.392 127.8 234.389C127.12 234.387 126.44 234.384 125.78 234.384H124.35L76.7302 234.563V234.146L76.1103 234.108C73.0403 233.917 69.9802 233.546 66.9502 232.995L66.8303 232.973L66.7202 232.995C62.1202 233.832 57.4202 234.256 52.7502 234.256H36.1902C10.8602 234.256 -12.4598 222.86 -28.0098 202.937L-28.7398 201.982V201.979L-28.8797 201.797C-44.9797 180.417 -49.5399 152.44 -41.0899 126.943L-35.2798 109.505C-32.9198 102.412 -29.8998 95.4881 -26.2598 88.9061L-26.1597 88.722L-26.1797 88.514C-26.5297 85.438 -26.7097 82.3301 -26.7097 79.2441C-26.7097 74.0791 -26.2198 68.8931 -25.2398 63.8231L-25.2298 63.7711V63.7181C-25.1698 61.8981 -25.0597 60.0801 -24.8797 58.2861L-24.7898 57.5181V57.5151C-23.4898 45.5671 -19.3897 33.9341 -12.9097 23.8091L-12.8699 23.7541L-12.8499 23.6931C-9.66988 15.4771 -5.35979 7.86007 -0.00979233 1.04407L0.510227 0.387054V0.386047C17.1702 -20.53 43.1101 -33.0229 69.8901 -33.0229Z" stroke="url(#paint0_linear_8704_1884)" stroke-width="1.31185" stroke-miterlimit="10"/>
<path d="M161.29 155.196L161.57 156.244L161.71 156.757C161.94 157.591 162.75 158.233 163.61 158.233C163.67 158.233 163.79 158.233 163.86 158.233H164.41C167.54 158.254 172.101 158.222 175.241 158.233H178.491L178.94 158.211C181.21 158.051 183.3 156.469 184.07 154.309C184.29 153.721 184.96 151.882 185.19 151.251C186.4 148.055 186.74 144.537 186.11 141.18C185.63 138.635 183.031 131.558 182.201 128.928C181.761 127.719 181.32 126.094 180.75 124.982C180.15 123.753 179.42 122.652 178.52 121.615C177.35 120.267 172.54 114.494 171.54 113.307L170.83 112.473C169.38 110.848 170.001 108.571 169.641 106.614C168.441 95.4311 158.62 86.2151 147.43 85.7131C145.08 85.6271 141.28 85.681 138.83 85.67C137.2 85.723 135.55 85.3921 134.11 84.6111C132.82 84.0021 131.54 82.6231 130.52 81.6281L124.32 75.5561C123.45 74.7111 122.1 73.3531 121.23 72.5411C118.69 70.1571 115.74 68.211 112.54 66.821C111.12 66.19 104.06 63.421 102.51 62.769C101.05 62.17 99.6904 61.2931 98.5304 60.2131C97.4604 59.2301 96.5203 57.84 95.6703 56.707C95.0403 55.883 93.7404 54.109 93.0804 53.264C90.5404 50.003 86.8803 47.7371 82.9003 46.6891C81.3803 46.2831 73.6105 43.813 72.0905 43.524C67.6805 42.669 62.9203 44.4651 60.1503 48.0251C59.1003 49.2981 58.3903 50.858 57.9303 52.441C57.6903 53.392 57.5103 54.526 57.3903 55.509C56.9203 58.856 55.1003 61.9781 52.4303 64.0301L51.9503 64.3831C51.9103 64.4151 51.8805 64.4371 51.8605 64.4581L51.7904 64.511C50.9604 65.142 50.8104 66.4681 51.4904 67.2701C51.5204 67.3131 51.6003 67.398 51.6503 67.462L53.0404 69.1301L52.9703 69.0551C53.4003 69.4941 53.5404 70.1891 53.3004 70.7551C53.0604 71.2361 52.6005 72.1671 52.3605 72.6581C51.8005 73.7811 50.6705 76.0581 50.1105 77.1811C48.8205 79.6611 50.1605 83.008 52.8505 83.8521L55.2203 84.6431C55.9103 84.8471 56.4904 85.3381 56.8304 85.9691L57.4003 87.1351L57.6903 87.701C58.3203 89.0591 59.8004 89.8721 61.2704 89.7651C61.7404 89.7651 69.8405 89.7651 72.0905 89.7651C72.3805 89.7651 72.6205 90.0001 72.6205 90.2891C72.6205 90.5771 72.4403 90.7591 72.1903 90.8121L68.3104 91.582C67.7504 91.7 67.3505 92.181 67.3505 92.748V93.7311C67.3505 96.8211 66.0103 99.7721 63.6903 101.814L50.5704 113.329C44.3704 118.771 39.7205 125.784 37.1205 133.632L31.3405 150.984C30.7805 152.641 31.0204 154.501 32.0704 155.902C33.0604 157.196 34.5403 157.944 36.1803 157.944H52.7404C53.8304 157.944 54.7203 157.057 54.7203 155.956V154.095C54.7203 153.571 54.5103 153.058 54.1403 152.684L53.3104 151.85C52.7804 151.315 52.5404 150.535 52.7504 149.819C53.0104 148.963 53.7803 148.397 54.6603 148.397H59.0804C60.1704 148.397 61.0604 147.509 61.0604 146.408V143.233C61.0604 140.859 62.1704 138.614 64.0704 137.192L64.4503 136.903C70.1003 132.648 73.5603 125.987 73.4803 118.899C73.4403 115.381 75.0004 112.099 77.7504 109.929L81.1603 107.224C81.4803 106.967 81.6505 106.561 81.6005 106.155C81.4105 104.647 81.0604 103.15 80.5704 101.718C80.2204 100.67 79.4802 98.5001 79.1302 97.4631C76.9702 91.4971 77.6303 84.5371 80.9703 79.1481C83.0703 75.7051 86.2204 72.9361 89.8304 71.3541C90.0904 71.2361 90.3904 71.3541 90.5204 71.6111C90.6404 71.8561 90.5504 72.1561 90.3104 72.3061C82.2504 77.3201 78.2304 87.6581 81.5104 96.6611C81.8404 97.6981 82.5903 99.9541 82.9003 100.937C84.3803 105.428 84.5803 110.335 83.4503 114.911L77.1603 138.09L76.9603 138.817C76.0803 141.672 76.4803 144.804 77.9203 147.402C77.9703 147.541 78.2805 148.119 78.3405 148.236C79.0005 149.455 78.8705 150.952 78.8705 152.267V155.261C78.8505 155.923 78.8505 156.757 79.3605 157.271C79.8005 157.794 80.4903 157.998 81.1503 157.944H99.0804C99.2604 157.944 99.9004 157.944 100.07 157.933C101.14 157.837 101.94 156.811 101.85 155.742V154.245C101.85 153.913 101.82 153.582 101.68 153.283C101.55 152.973 101.27 152.684 101.03 152.449L99.9603 151.38C99.0203 150.46 98.9103 148.824 99.7003 147.787C99.9703 147.402 101.57 145.168 101.87 144.74C103.42 142.484 106.39 138.454 107.89 136.208C111.27 131.044 112.35 124.48 110.88 118.503C110.55 116.846 109.56 114.59 109.01 112.976C108.32 110.987 106.53 106.411 105.98 104.401C105.1 101.397 105.1 98.2431 105.3 95.1641C105.4 93.3361 105.51 91.4971 105.68 89.6581C105.71 89.3801 105.93 89.1661 106.22 89.1661C106.51 89.1661 106.73 89.3801 106.77 89.6581C107.02 92.4701 107.14 95.335 107.28 98.136C107.47 101.044 108.15 103.771 109.25 106.475C109.98 108.379 111.76 113.051 112.45 114.879C113.02 116.365 113.44 117.926 113.71 119.498C113.91 120.684 114.7 121.689 115.81 122.149C117.47 122.833 119.2 123.443 121.03 123.956C122.9 124.48 124.88 123.592 125.72 121.828C125.86 121.529 126.02 121.23 126.17 120.93C127.38 118.578 129.02 116.472 130.63 114.398C132.12 112.484 133.66 110.613 135.26 108.774C135.44 108.56 135.75 108.528 135.99 108.689C136.21 108.849 136.29 109.17 136.15 109.405C134.31 112.484 132.12 115.82 130.13 118.76C127.77 122.416 126.11 126.543 125.4 130.841C124.86 134.284 123.84 140.742 123.29 144.248C123.06 145.542 122.94 147.285 122.24 148.429C121.62 149.648 120.18 150.62 119.17 151.476L118.42 152.085L118.32 152.16L118.27 152.214C117.71 152.695 117.49 153.496 117.71 154.202C117.93 154.951 118.23 156.191 118.44 156.886C118.7 157.602 119.44 158.105 120.21 158.083H124.08C127.27 158.062 130.55 158.083 133.74 158.083C133.88 158.083 134.32 158.083 134.47 158.083C135.88 158.083 137.29 157.623 138.42 156.768C139.86 155.731 140.55 154.277 141.12 152.577C141.55 151.412 144 144.794 144.48 143.479C144.91 142.26 145.43 140.945 145.99 139.779C147.76 136.134 150.23 132.841 153.31 130.21C157.04 127.142 159.81 123.176 161.68 118.642C161.79 118.375 162.07 118.236 162.34 118.311C162.61 118.386 162.79 118.653 162.75 118.931C162.13 122.737 160.3 126.287 157.78 129.195C156.77 130.36 156.18 131.825 156.18 133.364V134.647C156.18 135.268 156.18 135.995 156.29 136.615C156.55 138.154 157.38 139.576 158.55 140.603L159.34 141.34L162.53 144.28L164.13 145.756C164.57 146.13 164.92 146.622 165.07 147.189C165.41 148.343 164.88 149.616 163.89 150.278C163.48 150.621 162.62 151.305 162.2 151.647C162.01 151.818 161.66 152.064 161.49 152.256C161.01 152.748 160.82 153.507 161 154.17L161.27 155.218H161.28L161.29 155.196Z" fill="white"/>
</g><defs>
<filter id="filter0_i_8704_1884" x="-45.9121" y="-33.679" width="309.308" height="274.731" filterUnits="userSpaceOnUse" color-interpolation-filters="sRGB">
<feFlood flood-opacity="0" result="BackgroundImageFix"/>
<feBlend mode="normal" in="SourceGraphic" in2="BackgroundImageFix" result="shape"/>
<feColorMatrix in="SourceAlpha" type="matrix" values="0 0 0 0 0 0 0 0 0 0 0 0 0 0 0 0 0 0 127 0" result="hardAlpha"/>
<feOffset dy="5.83044"/>
<feGaussianBlur stdDeviation="2.91522"/>
<feComposite in2="hardAlpha" operator="arithmetic" k2="-1" k3="1"/>
<feColorMatrix type="matrix" values="0 0 0 0 0 0 0 0 0 0 0 0 0 0 0 0 0 0 0.25 0"/>
<feBlend mode="normal" in2="shape" result="effect1_innerShadow_8704_1884"/>
</filter>
<linearGradient id="paint0_linear_8704_1884" x1="-8.19981" y1="27.6381" x2="182.34" y2="202.19" gradientUnits="userSpaceOnUse">
<stop offset="0.125" stop-color="#89D0FF"/>
<stop offset="0.4" stop-color="#EBBF9A"/>
<stop offset="0.635" stop-color="#EB8280"/>
<stop offset="0.88" stop-color="#A281FF"/>
</linearGradient>
</defs></g></svg>