<svg width="256" height="256" viewBox="0 0 256 256" fill="none" xmlns="http://www.w3.org/2000/svg">
    <g clip-path="url(#clip0_215_9489)">
        <path
            d="M33 45.0781V79.691C40.9977 75.548 48.9354 76.0528 56.8098 75.2085V41C48.1714 41 40.9977 41.0726 33 45.0781Z"
            fill="#E36E1B" />
        <path
            d="M101.453 48.9941C94.0693 46.3212 86.6303 43.9857 79.1309 42.4883V76.5503C86.6272 77.9202 94.0693 80.1266 101.453 82.6674V48.9941Z"
            fill="#E36E1B" />
        <path
            d="M79.1323 110.941V76.7018C71.7487 75.3154 64.3092 74.7855 56.8105 75.6374V110.275C64.3092 109.294 71.7487 109.688 79.1323 110.941Z"
            fill="#E36E1B" />
        <path
            d="M33 115.73V149.632C40.9977 145.308 48.9354 145.54 56.8098 144.447V110.941C48.6512 111.585 40.9977 111.537 33 115.73Z"
            fill="#E36E1B" />
        <path
            d="M79.1309 110.941V144.387C86.6272 145.475 94.0693 147.388 101.453 149.632V116.57C94.0693 114.201 86.6303 112.16 79.1309 110.941Z"
            fill="#E36E1B" />
        <path
            d="M56.8105 144.41V179.394C64.3092 178.128 71.7487 178.261 79.1323 179.259V144.675C71.7487 143.541 64.3092 143.281 56.8105 144.41Z"
            fill="#E36E1B" />
        <path
            d="M205.039 129.888C213.729 122.599 218.615 110.884 218.615 98.8402C218.615 80.168 207.203 72.5207 183.45 70.1545V53.8796C178.399 53.6186 173.318 53.0562 168.211 52.2638V68.5122C163.442 67.8115 158.651 66.9104 153.833 65.8554V49.4811C148.616 48.2957 143.373 46.9346 138.101 45.4648C138.101 50.9664 138.101 56.4696 138.101 61.9728C133.178 60.6413 128.228 59.2134 123.252 57.7483V91.0283C116.042 88.3451 108.774 85.4971 101.453 82.9771V116.638C108.774 119.032 116.042 121.752 123.252 124.308V157.588C116.042 155.16 108.774 152.562 101.453 150.295V183.956C108.774 186.097 116.042 188.563 123.252 190.868C128.228 191.988 133.178 193.073 138.101 194.058C138.101 199.561 138.101 205.064 138.101 210.567C143.373 211.579 148.62 212.483 153.833 213.215V196.841C158.651 197.557 163.442 198.125 168.211 198.492V214.739C173.318 215.089 178.399 215.205 183.45 215.028V198.888C209.789 197.437 223.479 176.514 223.479 155.641C223.479 140.24 216.461 132.774 205.039 129.888ZM153.878 92.6208C158.68 93.6027 163.457 94.4293 168.207 95.0616C170.329 95.3413 172.448 95.5837 174.56 95.781C174.967 95.8183 175.358 95.8618 175.745 95.9115C175.843 95.9224 175.937 95.9348 176.035 95.9457C176.397 95.9923 176.75 96.042 177.097 96.0964C177.12 96.0964 177.146 96.1042 177.168 96.1073C177.549 96.1694 177.914 96.2347 178.275 96.3077C178.338 96.3186 178.399 96.3341 178.464 96.3465C178.806 96.4149 179.145 96.4926 179.472 96.5734C179.482 96.5734 179.498 96.5765 179.51 96.5811C179.866 96.6697 180.218 96.766 180.555 96.8655C180.578 96.8732 180.602 96.881 180.623 96.8857C181.654 97.1964 182.6 97.5693 183.45 98.0043C187.452 100.037 189.484 103.52 189.484 108.656C189.484 113.891 187.452 117.615 183.45 119.506C182.595 119.905 181.651 120.22 180.62 120.444C180.597 120.447 180.578 120.455 180.555 120.46C180.218 120.533 179.866 120.595 179.51 120.648C179.498 120.648 179.482 120.648 179.472 120.652C179.145 120.697 178.806 120.736 178.464 120.767C178.399 120.772 178.338 120.778 178.275 120.783C177.914 120.809 177.549 120.833 177.168 120.84C177.146 120.84 177.12 120.84 177.097 120.84C176.75 120.848 176.397 120.845 176.04 120.84C175.942 120.84 175.848 120.837 175.75 120.833C175.362 120.817 174.967 120.798 174.564 120.767C172.453 120.598 170.334 120.387 168.211 120.137C163.457 119.571 158.68 118.805 153.881 117.888L153.878 92.6208ZM183.447 172.274C183.137 172.323 182.826 172.365 182.506 172.404C182.411 172.415 182.317 172.423 182.224 172.435C181.99 172.457 181.753 172.48 181.512 172.501C181.399 172.508 181.29 172.516 181.177 172.524C180.936 172.538 180.691 172.546 180.447 172.553C180.342 172.553 180.236 172.561 180.131 172.561C179.781 172.569 179.427 172.569 179.061 172.561C175.456 172.488 171.838 172.274 168.207 171.943C163.453 171.508 158.677 170.875 153.878 170.091V143.518C158.68 144.369 163.457 145.07 168.207 145.57C171.838 145.951 175.456 146.217 179.061 146.343C179.424 146.355 179.781 146.374 180.131 146.394C180.236 146.402 180.342 146.408 180.447 146.413C180.691 146.428 180.936 146.447 181.177 146.467C181.29 146.475 181.402 146.486 181.515 146.496C181.756 146.52 181.993 146.543 182.227 146.571C182.321 146.582 182.416 146.59 182.509 146.601C182.829 146.639 183.145 146.681 183.45 146.733C190.715 147.833 194.504 151.488 194.504 158.943C194.504 166.331 190.712 171.046 183.447 172.274Z"
            fill="#E36E1B" />
    </g>
    <defs>
        <clipPath id="clip0_215_9489">
            <rect width="256" height="256" fill="white" />
        </clipPath>
    </defs>
</svg>