<svg width="1000" height="1000" viewBox="0 0 1000 1000" fill="none" xmlns="http://www.w3.org/2000/svg"><g transform="translate(66.35071090047393, 0) scale(4.739336492890995)"><path d="M0 52.6658V158.014L91.2468 210.697L182.51 158.014V52.6658L91.2468 0L0 52.6658Z" fill="url(#paint0_linear_150_76)"/><path d="M135.066 77.7459L46.8853 131.14V185.076L91.2466 210.697V157.54L182.51 105.349V52.666L135.066 25.2832V77.7459Z" fill="#002D74"/><path d="M47.4441 132.934L135.625 79.5576V25.6047L91.2468 0V53.1569L0 105.349V158.014L47.4441 185.414V132.934Z" fill="#002D74"/><path d="M136.336 26.0111L91.2461 0V53.1569L136.336 79.3372" fill="url(#paint1_linear_150_76)"/><path d="M91.2469 157.541L46.1739 131.648L46.0723 184.619L91.2469 210.698" fill="url(#paint2_linear_150_76)"/><path d="M136.336 131.642L91.2803 157.789L46.1904 131.642V79.3321L91.2803 53.1348L136.336 79.3321L117.551 90.2212L91.2803 74.9629L64.9751 90.2212V120.754L91.2803 136.011L117.551 120.754L136.336 131.642Z" fill="white"/><path fill-rule="evenodd" clip-rule="evenodd" d="M3.42227 156.039L91.2468 206.746L179.088 156.039V54.6414L91.2468 3.95063L3.42227 54.6414V156.039ZM91.2468 0L182.51 52.6658V158.014L91.2468 210.697L0 158.014V52.6658L91.2468 0Z" fill="url(#paint3_linear_150_76)"/><defs>
<linearGradient id="paint0_linear_150_76" x1="0" y1="105.349" x2="182.51" y2="105.349" gradientUnits="userSpaceOnUse">
<stop stop-color="#14DCFF"/>
<stop offset="0.02" stop-color="#11C9F0"/>
<stop offset="0.07" stop-color="#0DA0CF"/>
<stop offset="0.13" stop-color="#097CB3"/>
<stop offset="0.19" stop-color="#055F9C"/>
<stop offset="0.25" stop-color="#03498A"/>
<stop offset="0.32" stop-color="#01397D"/>
<stop offset="0.4" stop-color="#002F76"/>
<stop offset="0.5" stop-color="#002D74"/>
<stop offset="0.56" stop-color="#003479"/>
<stop offset="0.64" stop-color="#034889"/>
<stop offset="0.74" stop-color="#0668A3"/>
<stop offset="0.85" stop-color="#0C96C7"/>
<stop offset="0.97" stop-color="#12D0F5"/>
<stop offset="0.99" stop-color="#14DCFF"/>
</linearGradient>
<linearGradient id="paint1_linear_150_76" x1="105.796" y1="67.4832" x2="130.042" y2="-16.8866" gradientUnits="userSpaceOnUse">
<stop stop-color="#E344FF"/>
<stop offset="0.04" stop-color="#CD41F1"/>
<stop offset="0.13" stop-color="#9D3CD4"/>
<stop offset="0.23" stop-color="#7338BA"/>
<stop offset="0.33" stop-color="#4F35A4"/>
<stop offset="0.44" stop-color="#323293"/>
<stop offset="0.55" stop-color="#1C2F85"/>
<stop offset="0.67" stop-color="#0C2E7B"/>
<stop offset="0.81" stop-color="#022D75"/>
<stop offset="1" stop-color="#002D74"/>
</linearGradient>
<linearGradient id="paint2_linear_150_76" x1="54.2024" y1="194.898" x2="83.022" y2="147.764" gradientUnits="userSpaceOnUse">
<stop stop-color="#002D74"/>
<stop offset="0.2" stop-color="#002F73"/>
<stop offset="0.34" stop-color="#033973"/>
<stop offset="0.46" stop-color="#084973"/>
<stop offset="0.58" stop-color="#0E5F73"/>
<stop offset="0.69" stop-color="#177C72"/>
<stop offset="0.8" stop-color="#22A071"/>
<stop offset="0.9" stop-color="#2ECA70"/>
<stop offset="0.99" stop-color="#3CFA70"/>
<stop offset="1" stop-color="#3EFF70"/>
</linearGradient>
<linearGradient id="paint3_linear_150_76" x1="91.2468" y1="212.661" x2="91.2468" y2="-1.94744" gradientUnits="userSpaceOnUse">
<stop stop-color="#14DCFF"/>
<stop offset="0.5" stop-color="#3EFF70"/>
<stop offset="1" stop-color="#14DCFF"/>
</linearGradient>
</defs></g></svg>