<svg width="1000" height="1000" viewBox="0 0 1000 1000" fill="none" xmlns="http://www.w3.org/2000/svg"><g transform="translate(0, 0) scale(3.5714285714285716)"><path d="M140 0C62.68 0 0 62.68 0 140C0 217.32 62.68 280 140 280C217.32 280 280 217.32 280 140C280 62.68 217.32 0 140 0ZM133.94 56.57C137.83 54.67 141.93 54.79 145.69 56.94C158.76 64.39 171.79 71.9 184.77 79.51C188.95 81.96 191.08 85.9 191.1 90.72C191.18 107.64 191.15 124.55 191.1 141.47C191.1 142.1 190.69 143.01 190.19 143.31C185.16 146.3 180.07 149.2 174.56 152.37C174.56 151.26 174.56 150.48 174.56 149.71C174.56 132.31 174.51 114.91 174.6 97.51C174.62 94.17 173.46 92.02 170.5 90.33C155.32 81.71 140.23 72.92 125.11 64.19C124.46 63.81 123.82 63.41 122.83 62.81C126.73 60.6 130.24 58.38 133.94 56.57ZM131.16 229.7C130.32 229.26 129.68 228.96 129.07 228.61C109.04 217.06 89.04 205.44 68.95 193.98C63.32 190.76 60.75 186.19 60.8 179.76C60.91 166.08 60.88 152.41 60.81 138.73C60.78 132.55 63.29 128.08 68.71 125C82.81 116.98 96.84 108.83 110.87 100.68C112.08 99.98 112.97 99.86 114.23 100.62C119.08 103.53 124 106.31 129.15 109.28C128.17 109.86 127.42 110.32 126.67 110.75C111.49 119.52 96.32 128.31 81.1 137.02C78.6 138.45 77.45 140.3 77.47 143.19C77.55 153.97 77.56 164.74 77.47 175.52C77.44 178.5 78.62 180.38 81.19 181.85C97.25 191.03 113.25 200.33 129.3 209.53C130.66 210.31 131.24 211.12 131.2 212.75C131.08 218.27 131.16 223.79 131.16 229.7ZM131.16 198.83C129.77 198.04 128.76 197.47 127.76 196.89C115.03 189.54 102.31 182.17 89.55 174.88C88.17 174.09 87.66 173.25 87.68 171.65C87.77 163.36 87.74 155.08 87.7 146.79C87.7 145.67 87.87 144.89 88.98 144.28C93.68 141.66 98.32 138.92 102.98 136.24C103.32 136.05 103.68 135.9 104.3 135.6C104.3 138.88 104.3 141.89 104.3 144.9C104.3 149.94 104.38 154.98 104.27 160.02C104.21 162.89 105.31 164.83 107.82 166.25C115.03 170.32 122.15 174.55 129.37 178.6C130.79 179.4 131.22 180.28 131.19 181.85C131.1 187.36 131.16 192.88 131.16 198.83ZM116.45 90.08C113.75 88.49 111.44 88.51 108.74 90.09C93.6 98.93 78.4 107.66 63.22 116.43C62.58 116.8 61.91 117.14 60.78 117.76C61.18 111.99 59.95 106.55 61.91 101.28C62.98 98.4 64.99 96.23 67.65 94.69C80.32 87.37 92.98 80.03 105.67 72.76C110.3 70.1 115.03 70.17 119.66 72.83C134.07 81.13 148.48 89.45 162.86 97.8C163.47 98.16 164.24 98.95 164.25 99.54C164.35 105.47 164.31 111.39 164.31 117.76C159.08 114.74 154.25 111.95 149.42 109.17C138.42 102.82 127.4 96.52 116.45 90.08ZM217.77 183.23C217.4 187.89 214.66 191.2 210.63 193.51C195.19 202.39 179.78 211.3 164.35 220.21C159.51 223 154.67 225.8 149.82 228.59C149.24 228.93 148.63 229.22 147.84 229.64C147.79 228.84 147.72 228.25 147.72 227.66C147.71 222.55 147.75 217.44 147.69 212.33C147.68 211.18 147.97 210.46 149.03 209.85C171.53 196.91 194 183.92 216.48 170.95C216.82 170.75 217.19 170.6 217.83 170.29C217.84 174.82 218.1 179.05 217.77 183.23ZM217.88 151.02C217.84 156.32 214.99 160.04 210.45 162.64C192.86 172.75 175.29 182.92 157.72 193.06C154.51 194.91 151.29 196.76 147.84 198.74C147.79 197.87 147.72 197.29 147.72 196.7C147.71 191.66 147.77 186.62 147.68 181.57C147.66 180.14 148.13 179.37 149.37 178.66C165.36 169.49 181.28 160.21 197.29 151.09C200.14 149.47 201.39 147.48 201.37 144.14C201.25 126.74 201.31 109.33 201.31 91.93C201.31 91.1 201.31 90.28 201.31 88.89C205.49 91.41 209.39 93.48 212.97 96.01C216.23 98.32 217.87 101.82 217.89 105.85C217.95 120.91 217.99 135.96 217.88 151.02Z" fill="black"/></g></svg>