<svg width="1580" height="1580" viewBox="0 0 1580 1580" fill="none" xmlns="http://www.w3.org/2000/svg">
<path d="M441.756 613.255L262.162 521.809C248.071 549.392 236.228 578.325 226.633 607.858L418.37 669.921C424.666 650.433 432.462 631.394 441.756 613.255Z" fill="black"/>
<path d="M594.216 452.1L693.607 623.448C708.148 615.053 723.739 608.607 739.78 604.26L688.36 412.973C701.402 409.525 714.745 406.527 728.237 404.428L696.605 205.346C666.023 210.143 635.591 217.489 606.209 227.083L667.672 415.671C648.034 422.118 628.995 430.063 610.706 439.357L520.459 262.912C493.026 277.003 466.341 293.344 441.456 311.633L560.186 474.287C571.129 466.341 582.523 458.996 594.216 452.1Z" fill="black"/>
<path d="M1128.05 594.064L956.702 693.605C965.097 708.146 971.693 723.737 976.04 739.778L1167.33 688.208C1170.93 701.25 1173.77 714.593 1175.87 727.935L1374.95 696.303C1370.16 665.721 1362.81 635.289 1353.07 605.907L1164.63 667.67C1158.18 648.032 1150.24 628.993 1140.94 610.704L1317.39 520.158C1303.3 492.724 1286.96 466.04 1268.67 441.154L1106.01 560.034C1113.81 570.978 1121.15 582.371 1128.05 594.064Z" fill="black"/>
<path d="M1058.19 262.011C1030.61 247.92 1001.67 236.077 972.142 226.482L910.229 418.219C929.568 424.515 948.606 432.311 966.895 441.605L1058.19 262.011Z" fill="black"/>
<path d="M986.533 448.652L885.943 623.299C900.484 631.694 913.976 642.037 925.819 653.88L1207.95 370.698C1186.07 348.811 1162.23 328.573 1137.34 310.434L1021.01 470.989C1009.92 462.893 998.526 455.398 986.533 448.652Z" fill="black"/>
<path d="M448.652 593.465L623.149 694.206C631.544 679.664 641.888 666.172 653.731 654.18L370.848 371.896C348.961 393.784 328.723 417.619 310.583 442.505L470.989 558.986C463.043 570.079 455.548 581.622 448.652 593.465Z" fill="black"/>
<path d="M851.164 400.98L881.596 205.046C851.464 200.399 820.732 198 790 198H789.55V597.664H790C806.79 597.664 823.58 599.762 839.621 604.11L891.34 409.375C878.148 405.777 864.806 403.079 851.164 400.98Z" fill="black"/>
<path d="M604.11 740.529L409.375 688.66C405.927 701.852 403.079 715.344 400.98 728.836L205.046 698.255C200.399 728.387 198 759.418 198 790.15H597.664C597.664 773.21 599.912 756.57 604.11 740.529Z" fill="black"/>
<path d="M1138.54 967.043L1318.14 1058.49C1332.23 1030.91 1344.07 1001.97 1353.67 972.44L1161.93 910.377C1155.63 929.865 1147.84 948.904 1138.54 967.043Z" fill="black"/>
<path d="M985.934 1128.05L886.543 956.699C872.001 965.094 856.411 971.54 840.37 975.888L891.79 1167.17C878.747 1170.62 865.405 1173.62 851.913 1175.72L883.545 1374.8C914.126 1370 944.558 1362.66 973.941 1353.06L912.477 1164.48C932.116 1158.03 951.155 1150.08 969.444 1140.79L1059.84 1317.24C1087.27 1303.14 1113.96 1286.8 1138.84 1268.51L1020.11 1105.71C1009.17 1113.96 997.777 1121.3 985.934 1128.05Z" fill="black"/>
<path d="M452.25 986.233L623.598 886.542C615.203 872 608.607 856.41 604.26 840.369L412.973 891.939C409.375 878.896 406.527 865.554 404.428 852.212L205.346 883.843C210.143 914.425 217.489 944.857 227.233 974.24L415.671 912.626C422.118 932.115 430.063 951.304 439.357 969.593L262.912 1060.14C277.003 1087.57 293.344 1114.26 311.633 1139.14L474.287 1020.26C466.491 1009.32 459.146 997.926 452.25 986.233Z" fill="black"/>
<path d="M522.108 1318.29C549.692 1332.38 578.625 1344.22 608.157 1353.82L670.071 1162.08C650.732 1155.78 631.694 1147.99 613.404 1138.69L522.108 1318.29Z" fill="black"/>
<path d="M593.616 1131.65L694.207 957.002C679.665 948.607 666.173 938.263 654.33 926.42L372.197 1209.6C394.084 1231.49 417.92 1251.73 442.806 1269.87L559.137 1109.31C570.23 1117.26 581.773 1124.75 593.616 1131.65Z" fill="black"/>
<path d="M1131.5 986.832L957.001 886.092C948.606 900.633 938.262 914.125 926.419 926.118L1209.45 1208.4C1231.34 1186.51 1251.58 1162.68 1269.72 1137.79L1109.31 1021.31C1117.26 1010.07 1124.75 998.675 1131.5 986.832Z" fill="black"/>
<path d="M740.529 976.189L688.81 1170.92C702.002 1174.37 715.494 1177.22 728.986 1179.32L698.554 1375.25C728.686 1379.9 759.418 1382.3 790.15 1382.3H790.599V982.636H790.15C773.36 982.636 756.57 980.387 740.529 976.189Z" fill="black"/>
<path d="M982.636 790.148C982.636 807.088 980.537 823.729 976.19 839.769L1170.92 891.638C1174.37 878.446 1177.22 864.954 1179.32 851.462L1375.25 882.044C1379.9 851.912 1382.3 820.88 1382.3 790.148H982.636Z" fill="black"/>
</svg>
