<svg width="1000" height="1000" viewBox="0 0 1000 1000" fill="none" xmlns="http://www.w3.org/2000/svg"><g transform="translate(5.684341886080802e-14, 254.09836065573774) scale(16.39344262295082)"><path d="M34.2959 6.17871C34.4003 6.18607 34.497 6.19355 34.5791 6.19531C39.3324 6.2976 45.4153 6.97664 50.3691 8.37305C52.8455 9.07114 55.048 9.95068 56.6611 11.0322C58.2727 12.1128 59.3156 13.409 59.4307 14.9434L59.4404 15.0723H59.416C59.2619 16.5776 58.2148 17.8553 56.6133 18.9248C54.9707 20.0217 52.7274 20.9143 50.2061 21.623C45.1619 23.041 38.9735 23.7305 34.166 23.8291H34.1641C34.0702 23.8291 33.9155 23.8399 33.7979 23.8291C33.7376 23.8236 33.6703 23.8113 33.6133 23.7822C33.551 23.7504 33.4934 23.6927 33.4824 23.6035L33.4834 23.6025C33.4725 23.5116 33.5122 23.4396 33.5723 23.3926C33.626 23.3506 33.6956 23.3276 33.7578 23.3135C33.8837 23.2851 34.0415 23.2801 34.1562 23.2754H34.1572C38.3274 23.1439 42.7141 22.7448 46.6934 21.9131C50.6717 21.0816 54.2328 19.8194 56.7656 17.9697C57.757 17.0979 58.3119 16.2792 58.5176 15.5176C58.7221 14.7599 58.585 14.0457 58.167 13.3711C57.7466 12.6928 57.0402 12.0538 56.1084 11.46C55.1776 10.8668 54.0277 10.3227 52.7275 9.83203C47.5234 7.86825 39.9605 6.77576 34.5557 6.75488H34.5527C34.4681 6.75253 34.3686 6.75491 34.2598 6.75586C34.1532 6.75678 34.0392 6.75624 33.9365 6.74707C33.8372 6.73819 33.7326 6.71983 33.6523 6.67676C33.6106 6.65431 33.5683 6.62193 33.54 6.57422C33.5109 6.52478 33.5019 6.4688 33.5098 6.41211C33.5259 6.29211 33.6183 6.23083 33.7021 6.20215C33.7844 6.17402 33.8855 6.16667 33.9834 6.16602C34.0837 6.16537 34.1934 6.1715 34.2959 6.17871Z" fill="#1C1C1C" stroke="#1C1C1C" stroke-width="0.239316"/><path d="M33.4756 5.44141C33.8227 5.34157 34.2009 5.36945 34.3936 5.38281C34.468 5.38778 34.5373 5.39215 34.5967 5.39453L34.5957 5.39551C40.122 5.5139 46.0993 6.33867 50.583 7.60156C53.646 8.46468 55.9945 9.50413 57.6074 10.7158C59.2218 11.9287 60.1081 13.3212 60.2246 14.8848L60.2295 14.9434L60.2305 14.9531L60.2295 14.9639L60.2246 15.0225C60.1093 16.6035 59.2103 18.0115 57.5693 19.2393C55.9297 20.466 53.5404 21.5198 50.4209 22.3965C45.8461 23.6816 39.7748 24.5195 34.1816 24.6328H34.1123V24.6357H33.9932C33.5294 24.6357 33.2132 24.5195 33.0059 24.3369C32.8505 24.2 32.7652 24.0333 32.7207 23.8711L32.6885 23.7119C32.6497 23.4224 32.7334 23.1408 32.916 22.9189L32.917 22.918C33.2574 22.5107 33.7846 22.4909 34.0879 22.4766H34.1191C47.1569 22.0614 53.3578 19.4542 56.2646 17.3438C57.2602 16.4618 57.6429 15.7585 57.7666 15.2432C57.8895 14.7309 57.7612 14.3885 57.6953 14.2129C57.3674 13.3355 56.3653 12.474 54.8594 11.6748C53.3603 10.8792 51.388 10.1586 49.1602 9.55078C44.7043 8.33514 39.2446 7.57408 34.5518 7.55566H34.3389V7.55469C33.931 7.55948 33.3481 7.57267 32.9678 7.14453V7.14355C32.7686 6.91616 32.6743 6.61314 32.7158 6.30762C32.7491 6.05313 32.8471 5.86022 32.9873 5.71777C33.1263 5.57652 33.3001 5.49188 33.4756 5.44141Z" fill="#1C1C1C" stroke="#1C1C1C" stroke-width="0.239316"/><path d="M27.3135 6.1709C27.3739 6.17643 27.4419 6.18756 27.499 6.2168C27.561 6.24857 27.6177 6.30589 27.6289 6.39453L27.6279 6.45996C27.6186 6.52156 27.5846 6.57186 27.5391 6.60742C27.4854 6.64935 27.4158 6.67148 27.3535 6.68555C27.2276 6.71395 27.0698 6.71889 26.9551 6.72363H26.9541C22.7839 6.85514 18.3973 7.25524 14.418 8.08691C10.4396 8.91841 6.87747 10.1787 4.34473 12.0283C3.35328 12.9002 2.79938 13.7208 2.59375 14.4824C2.38939 15.24 2.52625 15.9544 2.94434 16.6289C3.36475 17.3071 4.0712 17.9463 5.00293 18.54C5.93368 19.1331 7.08379 19.6764 8.38379 20.167C13.5879 22.1308 21.1508 23.2233 26.5557 23.2441H26.5586C26.6433 23.2465 26.7435 23.2441 26.8525 23.2432C26.959 23.2422 27.0723 23.2428 27.1748 23.252C27.2741 23.2608 27.3787 23.2793 27.459 23.3223C27.5008 23.3447 27.5431 23.3771 27.5713 23.4248C27.6002 23.4737 27.608 23.5289 27.6006 23.585L27.6016 23.5859C27.5857 23.7064 27.4932 23.7681 27.4092 23.7969C27.3269 23.825 27.2258 23.8333 27.1279 23.834C27.0277 23.8346 26.9179 23.8275 26.8154 23.8203C26.711 23.813 26.6143 23.8055 26.5322 23.8037C21.7789 23.7014 15.696 23.0224 10.7422 21.626C8.26579 20.9279 6.06329 20.0483 4.4502 18.9668C2.83875 17.8863 1.79572 16.59 1.68066 15.0557L1.6709 14.9277H1.69531C1.84915 13.4221 2.89627 12.1449 4.49805 11.0752C6.14065 9.97825 8.38381 9.08482 10.9053 8.37598C15.9494 6.95798 22.1378 6.26849 26.9453 6.16992H26.9473C27.0411 6.16992 27.1958 6.16015 27.3135 6.1709Z" fill="#1C1C1C" stroke="#1C1C1C" stroke-width="0.239316"/><path d="M27.0508 5.36719V5.36816C27.5362 5.35706 27.8677 5.46897 28.0859 5.65234C28.3045 5.83617 28.3934 6.07783 28.4219 6.29102C28.4606 6.58012 28.377 6.86393 28.1943 7.08594L28.1934 7.08691C27.853 7.49449 27.3259 7.51395 27.0225 7.52832H26.9912L25.7881 7.57422C13.5593 8.10704 7.65219 10.6207 4.83887 12.666C3.84797 13.5453 3.46724 14.2475 3.34375 14.7617C3.22079 15.274 3.34918 15.6164 3.41504 15.792C3.74286 16.6694 4.74502 17.5318 6.25098 18.3311C7.75003 19.1266 9.72241 19.8473 11.9502 20.4551C16.406 21.6707 21.8657 22.4308 26.5586 22.4492H26.7715C27.1539 22.4447 27.6895 22.4347 28.0684 22.7861L28.1426 22.8613C28.3168 23.0603 28.4113 23.3173 28.4043 23.583L28.3945 23.6973C28.341 24.102 28.1258 24.3436 27.8574 24.4785C27.5967 24.6095 27.2915 24.6377 27.0508 24.6377H26.9316V24.624C26.8479 24.6213 26.7729 24.6205 26.7139 24.6152V24.6143C26.6406 24.6094 26.5723 24.6059 26.5137 24.6035V24.6025C20.9852 24.4841 15.0108 23.6593 10.5273 22.3965C7.46433 21.5334 5.11589 20.4943 3.50293 19.2832C1.88877 18.0711 1.00242 16.6796 0.885742 15.1162L0.880859 15.0566L0.879883 15.0469L0.880859 15.0371L0.885742 14.9775C1.00117 13.3967 1.90023 11.9884 3.54102 10.7607C5.18059 9.53411 7.56933 8.4801 10.6885 7.60352H10.6895C15.2643 6.31842 21.3356 5.48055 26.9287 5.36719H27.0508Z" fill="#1C1C1C" stroke="#1C1C1C" stroke-width="0.239316"/><path d="M30.5898 1.68652C30.6216 1.69597 30.6426 1.71623 30.6523 1.72754C30.6659 1.74347 30.6742 1.75998 30.6787 1.77051C30.6882 1.79272 30.6949 1.81903 30.7002 1.84375C30.7112 1.89514 30.721 1.96771 30.7305 2.05664C30.7495 2.23579 30.768 2.49774 30.7852 2.83203C30.8196 3.50171 30.851 4.4695 30.877 5.66406C30.929 8.05374 30.9609 11.3546 30.9609 15C30.9609 18.6453 30.929 21.9463 30.877 24.3359C30.851 25.5304 30.8196 26.4984 30.7852 27.168C30.7679 27.5024 30.7495 27.7642 30.7305 27.9434C30.721 28.0323 30.7112 28.1049 30.7002 28.1562C30.6949 28.1807 30.6881 28.2065 30.6787 28.2285C30.6742 28.2391 30.6661 28.2564 30.6523 28.2725C30.6393 28.2876 30.6062 28.3184 30.5537 28.3184C30.5014 28.3183 30.4691 28.2876 30.4561 28.2725C30.4422 28.2563 30.4333 28.2391 30.4287 28.2285C30.4193 28.2065 30.4125 28.1807 30.4072 28.1562C30.3962 28.1049 30.3864 28.0323 30.377 27.9434C30.3579 27.7642 30.3395 27.5024 30.3223 27.168C30.2878 26.4984 30.2574 25.5304 30.2314 24.3359C30.1794 21.9463 30.1465 18.6453 30.1465 15C30.1465 11.3546 30.1794 8.05374 30.2314 5.66406C30.2574 4.46952 30.2878 3.5017 30.3223 2.83203C30.3395 2.49776 30.3579 2.23579 30.377 2.05664C30.3864 1.96771 30.3962 1.89514 30.4072 1.84375C30.4125 1.81902 30.4192 1.79274 30.4287 1.77051C30.4333 1.7599 30.4422 1.74362 30.4561 1.72754C30.4691 1.71241 30.5013 1.68071 30.5537 1.68066L30.5898 1.68652Z" fill="#1C1C1C" stroke="#1C1C1C" stroke-width="0.239316"/><path d="M30.5527 0.881836C30.7745 0.881891 30.9561 0.931442 31.1006 1.0332C31.2449 1.13492 31.3404 1.28108 31.4053 1.45312C31.5317 1.78872 31.5552 2.26013 31.583 2.79199C31.6175 3.46542 31.6488 4.42652 31.6758 5.64746C31.7298 8.14618 31.7598 11.4694 31.7598 15.001C31.7598 18.5323 31.7298 21.8549 31.6758 24.3535C31.6488 25.5743 31.6175 26.5356 31.583 27.209C31.5552 27.7422 31.5319 28.2145 31.4053 28.5498C31.3404 28.7217 31.2449 28.8673 31.1006 28.9688C30.9561 29.0703 30.7744 29.1191 30.5527 29.1191C30.3308 29.1191 30.1485 29.0706 30.0039 28.9688C29.8595 28.867 29.7641 28.7209 29.6992 28.5488C29.5726 28.2132 29.5503 27.741 29.5225 27.209C29.488 26.5356 29.4557 25.5743 29.4287 24.3535C29.3747 21.8524 29.3447 18.5323 29.3447 15.001C29.3447 11.4694 29.3747 8.14864 29.4287 5.64746C29.4557 4.42652 29.488 3.46542 29.5225 2.79199C29.5503 2.25897 29.5728 1.78745 29.6992 1.45215C29.7641 1.2802 29.8595 1.13373 30.0039 1.03223C30.1485 0.930638 30.3309 0.881836 30.5527 0.881836Z" fill="#1C1C1C" stroke="#1C1C1C" stroke-width="0.239316"/><path d="M30.5537 14.5911C34.1904 14.5911 37.4832 14.6239 39.8672 14.676C41.059 14.7021 42.0252 14.7333 42.6934 14.7678C43.0269 14.7851 43.2881 14.8034 43.4668 14.8225C43.5554 14.832 43.6274 14.8418 43.6787 14.8528C43.7034 14.8581 43.7297 14.8647 43.752 14.8743C43.7626 14.8788 43.7798 14.8867 43.7959 14.9006C43.8111 14.9137 43.8418 14.947 43.8418 14.9993C43.8417 15.0511 43.8111 15.0837 43.7959 15.0969C43.7799 15.1108 43.7626 15.1187 43.752 15.1233C43.7297 15.1329 43.7034 15.1404 43.6787 15.1458C43.6274 15.1568 43.5554 15.1666 43.4668 15.176C43.2881 15.1951 43.0269 15.2135 42.6934 15.2307C42.0252 15.2652 41.059 15.2965 39.8672 15.3225C37.4832 15.3746 34.1904 15.4065 30.5537 15.4065C26.917 15.4065 23.6243 15.3746 21.2402 15.3225C20.0484 15.2965 19.0822 15.2652 18.4141 15.2307C18.0805 15.2135 17.8193 15.1951 17.6406 15.176C17.552 15.1666 17.48 15.1568 17.4287 15.1458C17.404 15.1404 17.3777 15.1329 17.3555 15.1233C17.3448 15.1187 17.3275 15.1107 17.3115 15.0969C17.3001 15.087 17.2807 15.0661 17.2715 15.0344L17.2656 14.9993L17.2715 14.9631C17.2809 14.9316 17.3002 14.9104 17.3115 14.9006C17.3276 14.8867 17.3449 14.8788 17.3555 14.8743C17.3777 14.8647 17.404 14.8581 17.4287 14.8528C17.48 14.8417 17.552 14.832 17.6406 14.8225C17.8193 14.8034 18.0805 14.7851 18.4141 14.7678C19.0822 14.7333 20.0484 14.7021 21.2402 14.676C23.6243 14.6239 26.917 14.5911 30.5537 14.5911Z" fill="#1C1C1C" stroke="#1C1C1C" stroke-width="0.239316"/><path d="M30.5518 13.792C34.075 13.792 37.3875 13.8218 39.8828 13.876C41.1008 13.9031 42.0596 13.9352 42.7314 13.9697C43.2634 13.9976 43.7347 14.0205 44.0693 14.1475C44.2409 14.2126 44.3861 14.3085 44.4873 14.4531C44.5886 14.5979 44.6377 14.7798 44.6377 15.002C44.6377 15.2241 44.5886 15.406 44.4873 15.5508C44.3859 15.6954 44.2401 15.7913 44.0684 15.8564C43.7334 15.9834 43.2622 16.0063 42.7314 16.0342C42.0596 16.0687 41.1008 16.1009 39.8828 16.1279C37.39 16.1821 34.075 16.2119 30.5518 16.2119C27.0285 16.2119 23.7135 16.1821 21.2207 16.1279C20.0027 16.1009 19.0439 16.0687 18.3721 16.0342C17.8401 16.0063 17.3689 15.9834 17.0342 15.8564C16.8626 15.7913 16.7174 15.6955 16.6162 15.5508C16.515 15.406 16.4658 15.2241 16.4658 15.002C16.4659 14.7798 16.5148 14.5979 16.6162 14.4531C16.7176 14.3084 16.8634 14.2126 17.0352 14.1475C17.3701 14.0205 17.8413 13.9976 18.3721 13.9697L19.5918 13.9199C20.0676 13.9042 20.6118 13.8895 21.2207 13.876C23.7135 13.8218 27.0285 13.792 30.5518 13.792Z" fill="#1C1C1C" stroke="#1C1C1C" stroke-width="0.239316"/></g></svg>