<svg xmlns="http://www.w3.org/2000/svg" version="1.1" xmlns:xlink="http://www.w3.org/1999/xlink" width="79" height="86"><svg width="79" height="86" viewBox="0 0 79 86" fill="none" xmlns="http://www.w3.org/2000/svg">
<path d="M77.88 53.8L78.72 55.96L78.48 64L78.24 68.68L77.04 70.36L75.12 72.88L71.88 76.48L68.28 79.84L60.96 82.36L56.76 84.16L52.56 84.64L50.64 85.12L47.88 84.52L45.6 84.88L42.6 85L37.32 85.48L33.96 84.76L28.68 85.24L26.76 85L22.08 85.24L19.8 85L14.76 84.76L8.4 85L4.08 84.52L1.56 84.16L0.6 81.64V74.68L0.96 69.16L0.36 67.36L0.6 62.92L0.24 60.88L0.96 54.04L0.24 48.76L0.84 46.48L0.48 44.32L0.6 39.52L0.48 37L0.6 32.32L0.72 25.24L1.44 22.48L1.2 17.56L0.36 14.08L0.12 11.44L1.08 6.51999L1.2 2.44L5.52 1.59999L13.32 0.639999L15.48 0.0399995L18 0.399995L20.16 0.279996L25.08 1.84L29.88 1.36L32.04 0.519993L34.32 0.999994L36.48 1.24L38.52 0.879996L41.04 1.11999L46.68 0.999994L52.08 1.96L54.48 1.72L63.48 4.12L65.52 5.43999L68.04 6.16L71.64 10.48L73.32 12.04L74.04 14.08L75.12 16.12L76.92 21.4L77.76 23.8L77.16 26.32L75.96 31.6L70.68 38.56L69.12 39.88L67.32 41.2L69.72 42.4L73.2 45.04L76.2 49.36L77.4 51.28L77.88 53.8ZM15.72 6.76L16.08 7.71999L16.32 6.03999L16.8 6.63999L17.4 8.08L18.84 8.31999L18.24 8.92L17.52 8.68L16.92 8.08L16.08 8.19999L17.16 9.52L17.4 8.68L17.76 9.87999L16.8 10.72L15.96 11.44L17.4 12.52L18.12 14.32L20.52 15.28H19.8L19.44 16.36L21.36 18.16L21 16.96L21.36 16.24L21.48 16.96V18.04L22.32 16L22.08 14.92H22.8L23.16 14.32L23.88 14.92L24.24 15.88L25.2 16.24L23.76 15.76L22.56 16.72L22.44 18.4L21.6 19L22.68 20.56L23.16 19.72L24 19.96L24.72 19.24V17.92L25.44 17.68L26.04 17.44L26.52 16.48L27.72 16.72L27.48 17.68L27.24 18.28L28.2 18.88L27.96 19.48L27.36 18.88L26.4 19.24L26.88 18.4L26.28 17.44L25.2 19.36L25.32 19.96L24.36 21.4L24.84 22L22.92 22.36L23.04 21.76H21.96L22.44 22.6L21.48 23.08L21.24 22.48L20.52 22.36L21.24 23.56L21.72 24.64L19.68 24.4L18.6 24.04L18.24 25.12L18.96 25.84L20.04 25.72L20.76 25.36L22.32 24.64L23.52 24.28L24.48 24.16L25.08 23.8L24.72 23.44L25.44 22.6L25.2 21.64L27 21.76L28.2 23.08L27.24 22.6L27.96 23.2H26.52L26.64 22.48L26.16 23.2H25.56L24.6 24.52L25.2 25.6L24.24 25.96L26.52 26.08L27.36 25.84L28.08 26.2L29.4 25.36L28.92 24.28L29.16 23.08V22.48L29.28 21.64L27.96 20.68L26.64 21.16L27.84 19.96L29.04 18.88L30.12 18.04L30.48 17.08H31.8L32.64 16.48L33.36 15.64L34.08 15.4L35.28 15.16L35.64 14.8L35.4 14.68L36.12 14.2L35.64 14.8L36.6 15.16H37.2L36.84 15.88L37.44 16.84L38.52 16.6L39 18.16L40.68 19.48L40.2 20.08L40.56 20.92L41.52 21.16L41.04 19.96L42.12 20.08H43.68L44.4 18.64L43.44 18.16L44.4 18.04L45 16.84L45.96 17.44V16.24L45 15.64L43.92 16.12L44.88 16.84L42.36 16.96L41.16 16.48L40.32 17.08L39.48 15.76L40.56 15.4L41.64 13.84L40.56 13.96L39.36 13.24L39.24 14.32L38.64 13.72L37.44 13.84L37.32 13.24L36.24 14.08V12.4L36.96 12.04H35.88L34.56 11.32L35.64 10.96L36.24 10.36L37.44 9.52L39.84 10.6L39.48 11.68L38.52 11.08L37.44 11.68V12.88L39.36 11.8L41.16 13.12L41.04 12.76L41.64 13.24L42.36 11.8L43.08 10.96L43.2 11.92L44.4 12.4L45.36 11.68L45.12 10.48L44.4 10.24L42.96 9.64L43.92 10L44.88 9.27999L42.72 8.44L43.08 6.51999L41.28 6.63999L40.56 6.76L39.48 7.48V7.6H39.36L39.48 7.48L39.72 6.16L41.52 6.03999V5.43999L42.96 5.68L43.32 6.28L44.88 5.68L46.92 4.24L46.08 3.04L45.12 3.16L44.16 1.84L43.56 3.27999L42.12 2.79999L40.92 4.6L41.04 3.52L40.56 2.79999L38.76 3.52L38.52 2.92L36.72 3.87999L36.48 2.79999L36.24 4.12L35.52 3.4L35.76 4.48L35.64 4.95999L35.28 6.03999L34.92 5.32V4.72L34.32 4.48L34.44 3.75999L33.72 3.64L34.32 3.27999L33.36 3.64L31.56 3.4L31.32 4.35999L30.36 3.75999L30.48 4.24L30.6 4.35999V4.95999L30.72 5.55999L31.56 6.63999L32.76 6.03999L33.6 5.68L33.72 6.4L33.84 7L33 7.48L32.16 8.08L31.68 7.36L30.12 7.24L30 6.28L30.6 5.8V4.95999L30.48 4.24L28.2 2.92L27.6 4L28.08 4.95999L27.72 5.8L27.96 5.2L27.12 4.24L25.8 4.48L25.92 5.55999L25.08 7L26.52 6.03999L27 7.11999L29.28 9.04L27.24 11.68L27.72 13.12L28.32 13L27.12 13.36L28.56 14.08L29.76 14.32L31.8 15.04L30.72 13.84L29.88 13.96L30.48 12.16H33.12V10.12L33.36 11.08L33.96 10.6L33 13L33.36 13.48L32.52 14.08L32.64 15.28L32.04 15.88L31.44 15.76L30.12 15.04L30.72 15.88H29.76L30 16.48L29.28 16L29.4 15.28H27.6L27.12 14.56L27.48 13.6L26.64 13.24L26.04 13.12L26.28 12.16L25.44 11.2L25.32 11.92L24.84 11.32L22.56 13.96L22.08 14.8L21.96 13.72V13.12L21 12.52L21.6 11.68H21.48L20.4 11.32L20.88 10.48L21.36 11.56L21.48 11.68H21.6L22.2 12.04L23.52 12.76L22.8 11.44L23.4 10.84L22.92 10.24L21.12 9.64L22.44 8.92L23.16 9.39999L24.12 8.31999L23.88 9.87999L24.48 9.04L24.84 9.76V8.68L25.08 7.84L24.12 5.55999L25.2 4.83999L25.08 3.27999L23.64 2.56V4.12H22.32L21.72 5.2L22.08 5.92L21.6 5.32L22.08 4.35999L20.52 2.67999L20.16 1.48L18.48 1.11999L17.4 2.56H16.68L16.32 3.4L16.68 4L16.44 4.6L16.2 4L16.08 2.79999L13.92 2.56L14.76 1.96H13.44L12.48 2.19999V3.64L14.04 4.24L15.12 4.12L15.84 5.55999L16.32 4.72L16.08 5.32L17.4 4.48L17.52 2.79999L17.88 4L19.08 4.24L18.24 4.48L19.2 4.72L17.88 5.32L17.04 5.43999L16.2 5.92L16.32 6.03999L15.72 6.76ZM33.36 2.19999L32.76 2.92L34.32 2.44L33.36 2.19999ZM9.12 2.67999L8.64 3.87999L9.48 4.24L10.44 5.08L11.28 5.68L12.36 5.2L10.92 4.24L11.16 3.52L10.44 2.44L9.12 2.67999ZM4.44 3.52L4.08 4.12L5.16 4.83999L5.52 4.12L5.16 3.52H4.44ZM3.24 5.43999L2.52 8.19999L4.08 8.68L5.28 7.48L5.04 6.4L6 4.48L4.68 5.32L4.8 5.92L3.24 5.43999ZM19.56 4.48L20.52 5.2L21.6 4.72L20.64 5.43999L19.56 4.48ZM47.16 4.83999V5.43999L46.44 4.72L46.56 6.03999L45.96 5.8L45.12 6.4L43.92 6.28L45.12 7L45.24 7.71999L47.28 6.63999L48.24 6.28L48.36 5.32L47.16 4.83999ZM51.84 4.95999L51.36 6.28L52.32 7.36L53.76 7.11999L52.44 5.55999L51.84 4.95999ZM55.32 8.08L54.48 7.11999L53.16 7.36L52.8 8.68L55.08 8.31999L55.44 9.52L57 7.71999L57.96 8.19999L58.92 8.56V10.12L60.48 9.04L60.6 9.76L60.72 10.96L61.68 11.44L61.44 12.16L62.64 12.04L63.12 10.96L62.28 10.24L61.32 8.68L59.88 8.44L60.24 7.84L59.16 8.31999L60 7.48L59.4 6.4L58.8 6.28L58.56 7.11999L57.96 7.71999V6.88L58.2 6.16L58.68 5.55999L58.08 5.08L57 5.68L56.64 5.08L56.52 5.8L56.76 7.6L55.8 7.48L55.32 8.08ZM10.08 5.55999L8.88 6.28V7.71999L10.08 5.55999ZM8.76 6.4L8.28 5.68L8.4 7.11999L8.76 6.4ZM8.64 7.96L7.44 7.48L7.8 8.68L8.04 10.24L9.12 9.64L9.6 10.36L11.04 10.96L12.12 10.6L11.52 9.87999L11.4 7.71999L12.36 7L13.08 6.4L13.68 5.92L11.04 6.28L10.68 7.36L10.32 8.08L9.48 8.31999L8.64 7.96ZM54.6 6.28L55.92 6.51999L55.68 5.92L54.6 6.28ZM61.2 6.03999L60.72 7.11999H61.32L61.2 6.03999ZM51.12 7.24L50.04 6.03999L48.12 7.96L49.2 9.04L50.64 8.68L51.12 7.24ZM64.08 6.28L63.6 7.84L64.44 7.71999L64.68 6.88L64.08 6.28ZM14.28 8.56L14.88 7.71999L14.52 6.76L14.28 8.56ZM45.12 7.36L44.28 7.11999L43.44 7L43.68 7.84L44.52 7.96L45.12 7.36ZM20.28 7.48L21.12 7.24L21.84 7.71999L22.32 8.79999L20.52 8.31999L20.28 7.48ZM38.76 7.96L37.92 8.08V7.36L38.64 7.48L39.36 7.6L38.76 7.96ZM65.88 7.48L64.92 7.6L64.56 8.56L66.48 8.19999L65.88 7.48ZM35.28 8.68L35.16 8.08L34.44 8.31999L35.28 7.6L36.24 9.16L35.16 9.76L35.52 10.12H34.56L35.4 9.39999L35.28 8.68ZM26.04 8.92L27 7.84L26.16 8.08L26.04 8.92ZM14.52 9.64L13.92 9.76L12.96 8.19999L12.6 9.04L12.48 9.16L13.08 10.12L14.16 10.72L14.64 9.87999L14.04 10.96L13.92 11.44L13.8 12.88L14.64 13L15.24 11.92H15.84L15.72 9.87999L14.76 9.04L14.52 9.64ZM39.84 10.6L40.56 8.44L41.4 9.16L40.8 10.12L39.84 10.6ZM67.44 9.39999L67.32 10.84L68.52 11.56L68.64 8.79999L67.44 9.39999ZM27.48 8.79999H26.64L26.76 10.24H27.6L27.96 9.39999L27.48 8.79999ZM33.72 9.27999L33.12 10.12L32.76 8.79999L33.72 9.27999ZM62.64 8.92V9.64L63.24 10L63.84 9.76V9.04L62.64 8.92ZM51.96 9.27999L51.12 9.52H49.8L48.72 9.27999L49.32 10L48.72 11.08L49.44 12.16L50.28 12.04L50.88 12.28L50.52 10.72L51.36 10L53.16 10.12L51.96 9.27999ZM25.68 9.39999L25.44 10.96L26.28 10.72L26.52 9.27999L25.68 9.39999ZM32.64 10.36L32.52 10.96L30.96 11.2L30.72 10.12L30.96 11.32H30.24V10L31.2 9.64L32.64 10.36ZM60.72 13.12L60.12 12.28L60.84 11.32L60.12 9.76L57.48 11.08L58.44 12.52L58.08 13.48L59.28 13.24L60.72 13.12ZM19.56 11.08L17.52 10.96L18.6 10.24L19.56 11.08ZM52.92 11.56L53.52 11.44L53.28 10.36L52.68 10.6L52.92 11.56ZM4.08 12.16L4.44 11.44L4.08 10.84H3.36L2.88 11.44L4.08 12.16ZM56.76 11.44L54.96 11.68L53.88 10.84L54.24 11.68L54.96 11.8L54.6 12.76L54.48 14.44L55.8 14.08L57.48 13.6L57.84 12.04L56.76 11.44ZM7.2 12.04L6.72 11.44H6L5.76 12.16L7.2 12.04ZM65.28 12.16L66.36 12.76L66.72 12.16L66.36 11.44H65.64L65.28 12.16ZM24.36 13.36L23.76 13.12L25.56 12.16L25.44 12.88L25.08 13.96L24.36 13.36ZM69.36 12.28L69.12 13L69.6 14.56L71.16 15.04L72.36 13.84L72 12.28L69.6 12.88L69.36 12.28ZM62.04 13.84L63.96 13.36L63.36 12.64L62.4 12.88L62.04 13.84ZM43.8 14.32L44.76 15.52L44.4 12.88L43.92 14.08L43.8 14.32ZM8.04 15.88L7.32 15.28V13.72L6 12.88L4.56 15.28L6 16L7.2 15.4L7.08 16L6.6 16.6L7.68 17.56L8.16 16.6L9.12 16.72L8.52 16.24L9.24 15.64L8.04 15.88ZM17.16 23.32L17.64 24.16L18.12 23.32L18 23.92L18.6 23.2L18.72 22.36L18.84 21.28L18.96 20.68L19.8 20.32L20.04 18.88L19.08 19.6L18.48 20.32L17.16 18.28V17.56H19.68L18.36 16.72L17.04 17.44L16.32 16.84L16.44 15.88L16.8 15.4V14.68L17.04 13.12L15.36 15.28L15.96 15.04L15.12 15.64L14.76 14.44L13.68 14.32L12.72 13.12L12.84 14.44L13.44 14.68L12.72 15.4L12.96 16.24L12 16L13.32 16.96H14.88V17.92L13.8 17.44L12.6 18.28L14.88 19.24L14.52 20.2L14.16 21.4L12.48 22L14.04 22.36L15 21.76L15.24 23.08L16.44 23.32L15.72 21.88L16.8 20.92L16.44 19.36L16.2 19.24L16.8 18.76L16.92 19.72L18.72 21.28H17.64L16.8 22.72L17.16 23.32ZM47.88 14.44L48.96 15.4L50.04 14.44L49.32 13.72L48.48 13.6L47.88 13.24V14.44ZM60.48 14.2L61.32 14.32L60.12 13.36L60.48 14.2ZM9.36 15.52L10.2 15.64L11.28 13.48L10.32 13.36L9.6 14.68H8.64L9.24 15.64L9.36 15.52ZM62.4 16.36L60.6 15.16L59.88 14.2L58.56 13.96L57.24 14.92L57.12 16.48L56.88 17.32L57.6 18.04L58.44 17.68L58.92 17.08L60 16.48L61.2 17.2L62.4 16.36ZM51.36 16.12L51.96 14.32L51 15.04L51.12 15.4L51.36 16.36L51.72 17.32L53.16 15.64L52.08 15.52L51.36 16.12ZM43.08 14.92L42.24 14.32L42.96 15.88L43.08 14.92ZM13.08 14.56L10.92 14.8L12.12 15.28L13.08 14.56ZM16.56 14.8L16.44 15.88L16.32 16L16.56 14.8ZM69.12 16.72L68.88 15.52L66.6 16V17.2L66.84 18.04L65.52 19.96L67.2 20.08L68.16 18.64L67.56 17.44L68.16 17.68L69.12 16.72ZM54.48 16.6L55.08 15.64L54.48 15.88V16.6ZM3 15.76L2.64 16.36L4.08 16.24L3.72 15.64L3 15.76ZM54.72 16.36L54.36 17.68L55.32 18.64L56.52 18.28L56.88 16.96L55.92 16.72L57 16.12L56.28 15.76L55.56 16.6L54.72 16.36ZM35.04 17.32L35.64 17.2L34.68 16.72L35.04 17.32ZM61.68 16.96L63 18.64L63.36 17.68L62.76 16.84L61.68 16.96ZM8.76 17.2L9.36 17.92L10.32 17.8L8.76 17.2ZM12.12 18.52L12.36 17.32L11.04 18.88L12.12 18.52ZM30.48 18.28L31.56 20.32L32.76 19.72L32.4 17.92L31.2 17.32L30.48 18.28ZM38.64 18.88L38.16 18.76L37.8 17.56L37.08 17.92L36.48 19.24L36.12 20.2L37.44 20.08L37.68 19.36L37.8 20.56H38.76L39.12 19.6L38.64 18.88ZM62.04 17.56L60.72 18.64L61.32 19.36L62.28 19.24L62.64 18.28L62.04 17.56ZM69.36 19L70.44 19.96L69.6 17.68L69.36 19ZM46.44 20.56L47.28 21.52L47.64 20.56L48.24 19.6L49.32 19.36L49.92 19.72L50.28 19.12L49.32 18.28L48.36 18.52L47.76 17.8L46.8 18.16H45.72L44.88 19.6L46.44 20.56ZM6 22.72L7.32 22.84L7.92 23.2L7.2 23.68L7.32 25.12L8.64 25.72L9.84 24.88L8.76 22.36L8.88 22.12L9.48 21.88L9.24 20.68L8.28 21.16L7.92 22.36L7.68 21.28L7.2 20.56L5.88 20.92L4.8 20.8L6.24 20.44L6.72 18.88L3.96 18.04L3.48 19.6L4.56 20.8L3.72 22L3.96 22.96L5.16 23.32L4.68 22.72L6.48 21.28L6 22.72ZM16.2 18.16V19.24L15.6 18.76L16.2 18.16ZM10.08 18.64L8.28 18.16L8.52 19.12L9.48 19.36L10.08 18.64ZM35.88 20.08L36.24 19.24L35.64 18.64L35.04 20.2L35.88 20.08ZM72.72 19.72L73.56 18.76L72.84 19L72.72 19.72ZM20.28 19.12V20.8L20.88 21.28V20.8L20.28 19.12ZM52.68 23.56L54.72 24.04L55.68 23.44L55.92 22.24L55.68 21.28L54.36 21.52L54 19.12L52.56 19.36L52.08 20.68L52.92 21.76H54L54.12 22.72L52.68 23.56ZM60.84 19.24L59.52 20.32L59.88 22L61.44 22.6L62.4 19.84L60.84 19.24ZM11.04 19.48L9.96 19.72L10.08 20.32L11.16 20.08L11.04 19.48ZM48.24 22.36L47.4 22.84L47.88 23.68L47.76 24.28L49.32 24.76L50.52 23.56L50.4 21.64L50.52 20.32L49.44 19.6L48.24 20.2L48.96 21.64L48.36 21.52L48.24 22.36ZM71.64 21.16L72.24 20.68L72.12 19.84L71.64 21.16ZM64.08 20.44L62.64 20.68L61.8 21.88L61.68 23.32L63 24.16L64.32 22.84V21.76H65.28V20.08L64.08 20.44ZM74.52 21.16L73.68 20.56L72.84 21.04L74.4 22.12L74.52 21.16ZM72.36 21.4L71.28 21.88L71.64 22.6L70.44 23.2L70.8 25L71.52 24.88L71.76 25.6L72.72 25.72L72.48 24.28L73.92 23.56V22L72.36 21.4ZM43.56 31.84L46.2 26.92L45.72 24.64L43.32 22.72L34.68 21.64H30.36L31.2 25.6L30.96 27.52L30 32.56H31.8L38.28 32.92L40.68 32.32L43.56 31.84ZM66.12 23.08L65.52 23.8L65.76 22.96L65.04 22L63.96 24.4L64.56 24.28L65.4 24.88L65.64 25.48L66.96 25.84L66.12 23.08ZM55.32 26.8H56.52L57.12 25.84L57.84 26.32L58.56 25.96V25.12L57.6 25.6L58.2 24.16L58.8 23.68L57.48 22.48L56.76 23.32L57.12 25.84L56.52 24.76L55.32 26.8ZM20.52 23.32L20.04 22.6L18.84 23.56L19.44 24.28L20.52 23.32ZM58.68 27.04L59.52 27.64L60.72 25.24L62.28 26.32L61.8 25.36L60.84 25L61.2 23.92L61.44 22.96L60.6 23.56L60.24 22.84L59.76 23.32L59.64 23.92L58.8 24.04L58.68 25.96V27.04ZM15.96 23.68L14.04 23.44L13.2 23.32L11.64 23.08L13.2 24.16L13.68 23.92L15.48 24.28L15.96 23.68ZM67.32 23.8L68.4 25L68.28 24.04L67.32 23.8ZM61.8 24.64L62.04 25.24L63.12 24.88L62.88 24.16L62.16 24.04L61.8 24.64ZM68.28 24.88H67.32L68.16 26.56L68.76 25.72L68.28 24.88ZM8.28 27.04L7.92 25.48L7.68 26.32L8.28 27.04ZM5.76 26.8L6 26.2L5.64 25.6H4.92L4.56 26.32L5.76 26.8ZM70.8 29.8L72.12 30.52L73.32 29.8V28.72L73.68 28.24L72.12 28L70.8 28.36V29.2L69.84 29.44L69.96 28.72L70.32 27.52L70.92 27.64L71.28 27.04L70.56 26.68L70.92 25.6L69.96 26.2L68.88 26.68L68.76 28.12L69.72 28.84L69.12 29.2V30.76L69.36 30.16L70.8 31L70.08 32.32L70.92 31.72L72 32.92L73.68 32.56L71.04 31.72L72.48 30.76L71.16 30.88L69.84 29.56L70.8 29.8ZM19.44 28.48L19.68 30.16L21.24 30.76L21 29.2L21.6 29.08L22.08 27.88L21.72 27.04L22.2 26.08L20.88 26.56L20.04 26.44L19.44 28.48ZM65.16 28.24L64.92 27.64L64.8 26.68L63.84 27.28L64.08 26.68L63 26.08L62.76 26.92L61.08 26.32L61.32 27.76L62.76 28.36L63.36 27.88L64.2 28.12L62.88 29.8L64.2 30.4L65.16 28.24ZM48.72 26.2L47.76 27.04L47.88 28.36L49.08 28.84L50.16 28L48.72 26.2ZM60 27.76L60.96 27.28V26.2L60 27.76ZM26.88 28.72L26.76 29.56L25.32 29.8L25.56 30.64L27.12 30.52L28.44 31.24L29.76 28.6L28.68 27.52L28.2 26.56L26.88 26.68L26.28 27.04L26.16 27.76L27.24 27.88L26.88 28.72ZM12.72 28.12L13.44 27.64V26.68L12.72 28.12ZM25.08 28.24L23.76 27.28L23.4 30.4L24.84 29.8L24.96 28.96L25.92 28.12L25.08 28.24ZM67.44 30.16L66.72 29.32L66.96 28.36L66.36 28.96L65.76 27.4L65.52 29.8L66.72 29.44L67.08 31.24L67.44 30.16ZM3.24 28.36L2.52 28.48L3.48 29.56L3.24 28.36ZM14.28 28.72L12.48 29.44L13.2 30.04L14.16 29.68L14.28 28.72ZM50.88 32.2L52.8 31.12L52.44 30.88L52.56 29.8L51.24 28.84L49.08 29.68L48.96 30.76L49.56 31.24L50.52 31.48L50.88 32.2ZM22.08 31.48L23.4 32.2L23.28 29.08L21.96 29.92L22.08 31.48ZM14.28 30.16L16.08 29.44L15 29.32L14.28 30.16ZM10.68 29.92L10.8 30.64L11.4 30.88L11.28 29.44L10.68 29.92ZM60.84 30.76L61.2 31.36L61.8 32.68L62.16 29.8L61.44 30.76H60.84ZM14.4 30.4L13.44 30.76L13.2 31.6L15.12 31.12L14.4 30.4ZM63.48 30.88L64.2 30.64L62.76 30.4L63.48 30.88ZM11.16 32.8L9.36 30.52L9.6 32.2L11.16 32.8ZM7.8 31.48L6.96 30.88L7.68 32.44L7.8 31.48ZM68.4 33.64L69.48 32.44L69 31L66.48 31.84L67.08 34.48L66.36 34.24L65.4 35.2L65.64 36.52L67.8 35.44L69 36.16V35.08L68.16 34.6L68.4 33.64ZM6.96 31.24L6.24 32.08L6.6 33.28L6.96 31.24ZM15.36 33.04L14.88 31.48L14.28 32.8L13.68 32.92L14.28 32.56L13.56 32.08L12.84 32.56L13.08 33.28L12.84 34L14.4 33.64L14.28 34.24L15.36 33.04ZM57.48 31.96L58.2 33.88L59.28 33.52L59.52 32.32L58.56 31.6L57.48 31.96ZM63.6 31.72L62.28 32.08L61.8 33.52L62.76 34.72L63.6 31.72ZM64.68 33.16L66.12 33.88L66.6 33.04L66 32.2L65.04 32.32L64.68 33.16ZM51.24 32.8L51.6 33.52L51.72 32.2L51.24 32.8ZM5.88 32.56L5.28 32.2L4.68 32.44V33.16L5.88 32.56ZM55.2 32.44L54.36 32.92L56.04 32.8L55.2 32.44ZM17.04 32.56L18.36 34.84L19.08 33.76L18.36 32.56H17.04ZM24.36 32.92L23.04 35.2H24.36L25.08 35.08L26.04 34.84L26.28 33.88L24.96 34L24.36 32.92ZM15.96 33.16L15.24 33.76L15.36 34.84L15.96 33.16ZM7.92 34.96L9.48 35.56L7.68 33.52L7.92 34.96ZM27.24 35.2L27.96 33.88L25.8 35.08L27.24 35.2ZM11.88 34.36L10.56 34L10.68 34.72L11.88 34.36ZM45.72 34.36L45.96 34.96L46.56 35.08L45.72 34.36ZM50.88 35.2L51.24 36.28L51.96 36.04L51.48 34.84L50.88 35.08L50.76 34.48L49.8 35.32L50.88 35.2ZM22.92 35.08L22.08 34.48L21.24 34.96L22.92 35.08ZM57.72 35.44L56.88 34.6L57.6 36.52L57.72 35.44ZM42.36 35.2L40.44 36.4L41.16 37.48L41.28 38.08L42.48 37.48L43.08 36.28L42.36 35.2ZM10.08 36.04L9.12 35.56L10.2 37.12L10.08 36.04ZM11.28 36.64L9.96 37.36L10.44 38.2H11.4L12.6 37.12L12.72 36.16L11.88 35.68L11.28 36.64ZM27.96 40.72L27.84 39.76L29.4 41.08L29.64 39.88L28.2 39.28L27.6 38.68L25.2 35.68L23.04 37.24L24 38.56L25.68 38.08L26.28 38.92L26.88 38.8L26.52 39.4L26.4 40.36L25.2 39.28L22.68 41.2L22.32 40.36L20.64 40.12L22.56 41.44L22.08 42.52L21.48 43.12L22.2 43L22.68 44.2L23.88 43.84L24 43.12L25.32 42.64L24.84 43.24L25.08 44.08L25.92 44.2L25.44 42.76L26.28 43L27 42.52L27.72 42.4L27.96 41.56L27.24 40.96L27.96 40.72ZM50.04 37.48L51.12 38.8L51 38.2L52.08 38.92V40.96H53.76L54.6 39.52L53.88 38.08L52.08 38.32L51 38.2L50.64 35.92L50.04 37.48ZM15.96 40.36L16.8 39.64L16.56 38.56L15.48 37.84L16.32 37.48L16.56 36.16L14.04 36.04L14.16 37.24L13.32 36.28L13.44 37.24L14.16 37.48V39.16L15.48 38.32L14.76 39.04L15.96 40.36ZM1.92 36.76L2.64 37.6L3.72 37.48L4.08 36.4L1.92 36.76ZM46.2 38.68L47.16 38.08V36.88L46.2 38.68ZM37.2 37.84L37.68 37.12L36 37L36.36 37.72L37.2 37.84ZM61.2 38.08L62.28 37.84L62.16 37.24L61.2 38.08ZM42.96 37.96L43.2 37.24L42.36 38.2L42.96 37.96ZM30.24 37.84L31.2 38.92L31.08 38.08L30.24 37.84ZM31.92 39.64L32.88 40.36L33.12 37.96L32.04 38.44L31.92 39.64ZM3.6 38.32L3 39.52L3.72 40.48L4.92 40.36L4.68 38.2L3.6 38.32ZM33.24 40.96L35.64 41.44L36 40L34.8 39.04L33.48 39.52L33.24 40.96ZM39.24 40.72L38.64 39.52L37.92 39.76L38.4 40.96L39.24 40.72ZM43.32 41.68L43.2 40.72L42.36 40.24L41.64 41.68L42.48 42.16L43.32 41.68ZM30.72 40.6L29.52 41.56L30.12 42.16L30.96 42.04L31.2 41.32L30.72 40.6ZM63.96 41.56L63.72 40.84L63 40.72L62.52 41.32L62.76 42.04L63.96 41.56ZM40.8 41.44L39.96 42.4L40.32 43.72L41.64 43.96L42.48 43L40.8 41.44ZM51.72 44.56L52.32 44.32L51.48 46.48L52.56 45.64L52.92 44.2L52.8 42.64L53.16 41.8L52.32 42.16L51.72 44.56ZM34.32 42.16L34.56 43.84L35.28 43.36L35.16 42.64L36.36 43.36L35.76 42.28L34.32 42.16ZM9.6 43.48L10.68 42.4L8.04 43.12L9.6 43.48ZM11.28 43.84L12.6 44.44L14.16 43.84L13.56 43.36L12.96 43.6L13.56 43.72L11.28 43.84ZM33.36 43.6V44.2L34.44 44.08L33.36 43.6ZM36.6 47.92L37.44 47.68L38.16 48.28L39.24 47.8L39.48 46.72L38.52 45.88L38.28 46.12L38.52 44.68L37.44 43.84L36.12 44.32L35.88 45.76L38.28 46.12L37.2 47.08L36 47.2L36.24 46.48L35.64 47.08L35.04 47.32V48.16L35.76 48.64L36.6 47.92ZM65.04 44.8L64.92 44.08L64.2 43.84L65.04 44.8ZM22.2 46.96L22.8 46.84L23.4 45.64L22.68 45.4L22.8 44.8H21.96L21.36 44.08L20.16 45.16L20.52 46.6L22.2 46.96ZM30.96 46L30.84 44.8L30.6 44.08L30 45.64L30.96 46ZM31.44 46.72L32.76 47.2L32.28 44.44L31.2 45.28L31.44 46.72ZM10.32 46.6L10.68 45.4L9.84 44.56L8.76 44.8L9.12 46.84L10.32 46.6ZM13.8 49L15.12 49.48L14.16 48.16L15 48.4L16.2 47.2L14.16 45.16L12.96 46.36L13.68 48.04L13.8 49ZM56.16 46L54.48 46.24V45.64L53.64 45.16L53.76 47.08L54.36 46.6L55.08 46.84L56.16 46ZM58.2 45.16L56.88 45.76L57.24 46.48L58.08 46.6L58.56 45.88L58.2 45.16ZM44.4 46L41.04 45.28L41.64 46.84L43.2 47.2L44.4 46ZM61.2 47.8V47.2L60.12 47.56H59.28L58.56 46.36L58.08 47.56V48.76L58.8 49.12L58.32 50.68L59.4 50.44L61.2 47.8ZM60.84 46.84L61.8 47.32V46.72L60.84 46.84ZM31.32 48.4L30.72 48.04L31.68 47.92L32.04 46.96L30.24 47.44L29.04 46.84V47.56L29.76 47.92L28.8 48.52L30.12 49.24L30.24 50.56L31.32 49.84V48.4ZM25.56 48.04L26.64 49L28.68 46.96H27L25.56 47.68L23.76 48.04L24.48 48.76L25.56 48.04ZM55.68 50.56L56.16 49.48L57 48.52L56.16 48.04L56.52 47.08L55.32 48.04L54.48 48.52L53.64 47.08L53.16 47.92L52.08 50.08H53.76L54.24 49L54.36 49.6L53.76 50.92L54.6 52.36L55.44 51.4L55.68 50.56ZM48.96 47.56L48.6 48.16L48.84 48.76L49.68 47.56H48.96ZM63.84 49L64.92 47.92L63.72 48.28L63.84 49ZM20.76 48.16L19.68 49.36L22.8 49.96L22.32 48.52L20.76 48.16ZM60.72 49.84L60 50.2L60.72 51.4L62.04 51.28L62.64 50.2V49.12L62.52 48.16L60.72 49.84ZM68.04 48.52L66.72 51.16L67.68 51.04V51.76L68.76 52.36L69.24 50.44L70.2 49.12L68.64 49.48L68.04 48.52ZM25.8 50.56L27.12 50.2L27 49.12L26.64 50.08L25.56 49.72L25.8 50.56ZM13.32 50.08L13.2 49.48L12.6 49.24L13.32 50.08ZM16.08 51.16L16.44 50.32L15.96 49.48L15.12 51.28L16.08 51.16ZM18.72 49.72L18.36 50.56L19.56 49.6L18.72 49.72ZM10.92 49.72V51.4H11.88L12.36 50.56L11.88 49.72H10.92ZM8.04 50.08L7.08 50.2L8.28 51.64L8.64 50.8L8.04 50.08ZM57.6 50.2L56.88 50.32L56.52 51.04L57.84 51.64L58.2 50.8L57.6 50.2ZM51 51.16L49.2 50.32L49.32 51.28L50.16 51.76L51 51.16ZM5.28 52L5.64 51.4L4.56 50.68L4.2 51.28L4.56 52H5.28ZM24.24 58.72L23.52 56.56L24.36 56.68L25.08 55.72L24.72 55L25.08 53.92L24 52.72L22.32 54.16V53.56L20.28 53.44L19.8 52.6L20.64 53.08L20.52 51.64L19.2 50.92L18 51.76L19.32 52.36L18.72 52.72V53.56L18.12 53.08L16.92 53.44L16.8 54.64L18.96 53.8L19.56 54.16L20.28 53.8L20.16 54.64L21.12 55.36L22.08 54.88L23.16 55.84L23.28 56.56L23.04 57.76L24.24 58.72ZM72.72 51.04L72.12 51.76L72.36 52.72L73.32 52.84L73.68 51.28L72.72 51.04ZM14.04 51.52L12.84 51.28L12 52.12L14.04 51.52ZM56.64 53.2L57.36 53.44L58.44 52.72L58.32 51.4L56.64 52.24V53.2ZM47.28 52.36L47.88 53.44L49.08 53.56L47.28 52.36ZM57 53.8L58.44 53.68L59.16 52.48L57 53.8ZM45.12 63.64L47.64 61.72L47.04 55.72L41.04 52.6L38.76 52.72L35.4 52.6H30.12L30.36 54.76L30.24 56.44L30.72 64.36H32.52L35.28 64.72L39.36 64.24L45.12 63.64ZM66.72 53.44L67.8 52.84H67.08L66.72 53.44ZM59.16 53.08L58.08 54.88L59.16 54.28V53.08ZM69.36 53.56L70.68 54.28L71.88 53.56H69.36ZM53.16 55.84L55.32 54.64L54.24 54.04L53.16 54.64V55.84ZM56.88 54.16L56.28 55.24L56.88 56.2L58.08 56.32L56.88 54.16ZM62.76 55.24L63 55.96L63.48 57.04L63.6 55.96L62.76 55.24ZM75.36 56.44L74.4 55.48L73.2 55.84L72.84 57.04L73.68 58L75.36 56.44ZM17.16 58.6L15.6 56.56L15.84 58L16.68 58.36L16.08 59.32L17.16 58.6ZM13.32 56.92L12 57.52L14.4 59.2L14.52 57.76L13.32 56.92ZM21.36 58.36L22.32 57.76L20.76 57.04L19.56 58L18.48 57.52L17.28 58.36L17.4 59.8L20.28 59.92L21.36 59.44V58.36ZM27 57.28L24.84 58.84L26.04 59.32L27.12 58.6L27 57.28ZM62.04 60.4L63.6 58.96L62.52 58.72L62.16 57.76L60.24 58.6L60.72 59.68L61.44 60.4L60.6 60.88L60.48 62.08L62.64 61L62.04 60.4ZM75.24 60.52L77.4 59.44L75.96 58.48L75.36 58.84L74.52 57.76L74.76 59.08L74.28 58.36L73.2 59.44H70.92V60.16L71.28 61.84L72.12 62.08L72.84 62.32L73.92 60.88L75.24 60.52ZM69 60.4L69.36 59.56V58.96L68.52 58L67.08 58.36L69 60.4ZM57.72 62.08L56.88 60.64V61.6L57.72 62.08ZM59.28 61.24L60 62.68V61.72L59.28 61.24ZM67.92 61.24L69 62.08L68.64 61.36L67.92 61.24ZM10.92 62.44V63.52H12.72L12 61.72L10.92 62.44ZM23.88 63.28V61.84L23.28 62.2V62.92L23.88 63.28ZM27.48 62.08L26.76 62.2L26.52 62.92L27.12 63.4L27.48 62.08ZM62.16 65.92L64.44 64.48H63.72L63.6 63.88L66.36 64.36L65.88 62.8L64.2 62.44L62.76 63.52L62.16 64L62.76 64.72L62.16 65.92ZM20.76 63.64L21.6 62.8L18.72 63.52L19.68 63.76L18.6 64.24L19.08 66.16L20.04 67.12L21.12 67.24L21.24 65.44L19.92 65.56L20.76 64.24V63.64ZM54.96 65.44L55.68 64.24L54.96 63.16V65.44ZM58.68 65.32L59.88 64.72L60 63.4L57.72 63.28L57.6 64.6L58.68 65.32ZM76.56 64.12L75.36 63.4V64.12L75.96 64.48L76.56 64.12ZM76.8 66.88L77.16 65.56L76.32 64.6L75.72 66.64L75.12 66.76L75.48 68.56L74.76 67.84L73.8 68.08L74.04 66.76L72.84 66.52L73.32 65.68L72.48 64.24L71.64 64.72L70.32 63.88L69.36 64.36L68.76 64.72V66.4L69.72 66.04L69.96 67.36L70.68 67.12L71.64 67.48L72.12 68.92L72.84 69.04L72.72 69.88L75.48 68.68L76.2 67.84L76.68 68.44L76.8 66.88ZM17.16 64.24L17.28 64.96L18.48 64.72L17.16 64.24ZM26.64 65.32L26.04 66.28L27.36 65.92L28.08 66.04L27.48 64.72L26.64 65.32ZM52.92 65.8L53.04 65.08L52.2 65.92L52.92 65.8ZM56.64 67.6L58.44 67.72L58.8 69.88L59.4 68.2L59.04 67.12L58.8 65.68L56.4 66.16L56.64 67.6ZM53.4 66.16L53.64 67L54.48 67.12L54.96 66.52L53.4 66.16ZM32.04 67.24L32.76 67.84L32.16 66.28L32.04 67.24ZM35.28 67.84L35.4 67L34.92 66.4L35.28 67.84ZM68.64 69.16V68.44H69.72L69.48 67.84L68.64 68.2L68.04 67.84L67.56 66.88L67.44 68.32L68.64 69.16ZM62.28 67L61.44 68.44L62.28 67.96V67ZM41.04 70L40.8 69.28L41.4 68.56L40.92 67.48L39.72 67.24L39.48 67.96L38.16 67.12L39.72 68.68L38.76 70.6L40.32 70.24L41.04 70ZM20.16 70.24L20.64 69.04L19.92 69.16L19.68 69.76L18.48 69.4L19.08 67.12L17.64 67.48L17.28 68.92L18 69.52L17.4 69.76L19.92 71.92L20.16 70.24ZM28.32 69.76V68.08L26.76 67.36L28.32 69.76ZM25.32 67.6L25.68 68.32L26.52 68.44L25.92 67.6H25.32ZM22.68 68.08L23.28 69.4L23.4 68.56L22.68 68.08ZM28.44 70.84L29.88 71.44L31.08 70.48L30.84 68.92L29.4 68.32L28.44 70.84ZM13.56 70.72L13.92 71.32L14.4 70.6L13.8 69.88L13.68 68.68L12.84 69.4L12.96 70.36L13.56 70.72ZM65.04 69.4L64.92 70.36L66.72 69.64L65.88 69.04L65.04 69.4ZM6.72 69.16L6.24 70.12L6.84 70.84L7.8 70.72L9 70.84V70L8.28 69.52L7.68 69.76V69.16H6.72ZM42.96 71.68L45.36 71.44L45.24 70L44.04 69.4L42.84 70.24L42.96 71.68ZM62.04 70.84L61.68 69.76L61.44 70.96L62.04 70.84ZM55.44 71.92V70.96L54.48 70.6L54.72 72.52L55.44 71.92ZM49.56 71.32L51.12 70.72L49.32 71.08L49.56 71.32ZM14.52 71.08L14.4 71.92L15.12 72.28L15.84 71.92L15.24 70.72L14.52 71.08ZM12.96 71.32L11.52 71.08L11.88 71.8L12.48 71.92L12.96 71.32ZM72.12 73.84L72.96 73.12L72.72 72.04L71.64 71.68L72 73.24L70.2 73L71.04 73.6L72 73.24L72.12 73.84ZM69.6 73.24L70.08 72.16L69.48 71.8L68.88 72.16V72.88L69.6 73.24ZM67.92 73.6L68.4 71.92L66.36 73.24H65.64L65.52 74.44L66.24 74.56L66.6 73.96L67.92 73.6ZM25.68 72.52L25.44 73.72L27.72 72.88L26.76 72.16L25.68 72.52ZM22.2 73.24L23.52 72.28H22.56L22.2 73.24ZM8.4 75.4L10.44 74.2L9.72 72.76H8.04L7.08 74.2L7.56 74.92L6.96 75.28L7.8 76.48L8.52 76L8.4 75.4ZM19.8 73.48L19.44 73.12H18.24L17.28 73.6L17.16 74.68L18.24 74.56L19.44 74.2L20.16 74.92L19.8 73.48ZM32.16 73.84L31.92 73.24H31.32L32.16 73.84ZM58.92 75.88L60.6 76.12L58.32 74.32L58.92 75.88ZM11.76 78.16L13.92 76.24L12.72 76.48L12.6 74.68L12 76L12.24 76.6L11.76 78.16ZM58.44 75.16L57.6 75.04L57.12 75.76L58.2 76.6L58.8 75.88L58.44 75.16ZM14.64 77.2L15.36 77.8L16.32 77.08L17.16 78.04L18.96 76.36L18 75.28L16.68 75.52L16.32 76.6L14.64 77.2ZM25.68 76.84L28.08 77.08L27.6 76L26.4 75.88L25.68 76.84ZM30.48 78.76L33.72 77.92L32.52 76.72L30.84 77.2L30.48 78.76ZM20.04 77.44L20.52 76.84H19.44V77.32L20.04 77.44ZM6.48 76.84L7.56 78.16L7.32 77.2L6.48 76.84ZM56.64 78.76L57.72 79.24L58.68 78.52L56.4 77.56L56.64 78.76ZM15.36 81.28L16.56 80.2L16.32 78.52L15.36 81.28ZM52.2 79.72L53.4 79.48L52.8 79.24L52.2 79.72ZM57.48 81.04L58.92 81.4L57.12 79.6L57.48 81.04ZM9.48 83.2L9.96 82.6L9.72 82L9 81.76L8.76 82.96L9.48 83.2Z" fill="#4599BF"></path>
</svg><style>@media (prefers-color-scheme: light) { :root { filter: none; } }
@media (prefers-color-scheme: dark) { :root { filter: none; } }
</style></svg>