<svg xmlns="http://www.w3.org/2000/svg" version="1.1" xmlns:xlink="http://www.w3.org/1999/xlink" width="61" height="50"><svg width="61" height="50" viewBox="0 0 61 50" fill="none" xmlns="http://www.w3.org/2000/svg">
<path d="M27.3434 49.5825H5.50977V24.7913V16.5273V0H27.3434V49.5825Z" fill="#ADC1EF"></path>
<path d="M44.0743 0H32.8369V22.0364H44.0743C50.1595 22.0364 55.0925 17.1034 55.0925 11.0182C55.0925 4.93303 50.1595 0 44.0743 0Z" fill="#ADC1EF"></path>
<path d="M44.0743 27.5459H32.8369V49.5823H44.0743C50.1595 49.5823 55.0925 44.6493 55.0925 38.5641C55.0925 32.4789 50.1595 27.5459 44.0743 27.5459Z" fill="#ADC1EF"></path>
<path d="M60.6019 16.5273H0V33.0549H60.6019V16.5273Z" fill="#4D5DA4"></path>
<path d="M32.8369 16.5273V22.0364H44.0743C48.1502 22.0364 51.7004 19.8174 53.6064 16.5273H32.8369Z" fill="#7D8FC9"></path>
<path d="M5.50977 33.0549H27.3434V16.5273H5.50977V24.7913V33.0549Z" fill="#7D8FC9"></path>
<path d="M32.8369 27.5459V33.0549H53.6064C51.7004 29.7649 48.1502 27.5459 44.0743 27.5459H32.8369Z" fill="#7D8FC9"></path>
</svg><style>@media (prefers-color-scheme: light) { :root { filter: none; } }
@media (prefers-color-scheme: dark) { :root { filter: none; } }
</style></svg>