<?xml version="1.0" encoding="utf-8"?>
<!-- Generator: Adobe Illustrator 23.1.0, SVG Export Plug-In . SVG Version: 6.00 Build 0)  -->
<svg version="1.1" id="Capa_1" xmlns="http://www.w3.org/2000/svg" xmlns:xlink="http://www.w3.org/1999/xlink" x="0px" y="0px"
	 viewBox="0 0 1200 1200" enable-background="new 0 0 1200 1200" xml:space="preserve">
<g>
	<g>
		<path fill="#29505C" d="M1149.034,733.278c-1.804-3.7-5.933-6.236-10.638-3.891l-9.687,4.844l-17.719-16.538
			c-0.187-1.09-0.568-2.156-1.204-3.125c-15.817-24.103-260.53-219.686-304.354-254.618c0,0-40.561-97.349-40.866-98.08
			c0.105,0.252,3.348-2.52,3.598-2.842c1.766-2.279,2.368-5.066,1.288-7.863c0,0-32.837-84.945-32.905-85.122
			c-0.151-0.359,4.201-6.054,4.273-7.623c0.196-4.306-4.271-7.792-8.248-7.792c-8.767,0-50.027,1.673-91.597,3.459l-2.182-23.122
			c0,0,6.509-0.42,6.544-0.422c7.032-0.454,6.408-11.474-0.708-10.963l-6.869,0.443c0,0-0.368-3.898-0.37-3.926
			c-0.662-7.021-11.604-6.07-10.936,1.03l0.34,3.604c0,0-5.944,0.383-5.982,0.386c-6.856,0.442-6.533,10.973,0.348,10.973
			c0.119,0,0.239-0.003,0.359-0.011l6.307-0.407l2.159,22.889c-41.876,1.816-81.162,3.608-84.489,3.76
			c-10.631,0.485-9.795,16.904,0.749,16.46c0.059-0.003,0.341-0.016,0.791-0.036c0,0-18.392,91.252-18.461,91.595
			c-0.704,3.492,1.123,7.27,4.26,8.911l-15.641,81.738l-32.079-28.36c1.336-0.526,2.542-1.389,3.462-2.56
			c1.929-2.456,2.305-5.795,0.965-8.616l-29.781-62.802c0.026,0.002,0.053,0.004,0.078,0.006
			c10.603,0.924,12.088-15.447,1.493-16.406c-22.488-2.05-49.814-0.169-75.375,3.028l-0.779-21.023c0,0,6.008-0.601,6.038-0.604
			c7.029-0.703,5.996-11.688-1.094-10.93l-5.351,0.535c0,0-0.137-3.71-0.138-3.727c-0.264-7.135-11.24-6.69-10.976,0.408
			l0.163,4.415c0,0-6.721,0.672-6.747,0.675c-6.733,0.674-6.216,10.957,0.54,10.957c0.182,0,6.614-0.633,6.614-0.633l0.792,21.39
			c-37.756,5.338-69.276,12.828-71.553,13.375c-8.198,1.969-8.222,13.917-0.083,15.975l-14.526,72.63
			c-0.006,0.031-0.006,0.062-0.03,0.156c0,0-16.815,98.03-19.2,109.658c-1.959,1.185-3.397,3.163-3.84,5.535
			c-0.432,2.317-7.416,55.474-9.462,87.943c0,0-19.506-198.753-19.571-199.407c-1.024-10.436-17.441-9.026-16.398,1.607
			l5.005,50.999c-10.572,38.506-59.114,113.622-70.927,123.481c0,0-8.465-6.673-8.53-6.724c-5.58-4.398-12.376,4.229-6.801,8.624
			l10.57,8.332c1.696,51.069-35.69,98.254-45.928,110.174c0,0-11.28-2.886-11.357-2.905c-6.9-1.765-9.613,8.88-2.722,10.641
			l9.364,2.395c5.026,49.351-34.22,73.256-35.987,74.302c-0.054,0.032-0.096,0.076-0.149,0.109c0,0-4.01-0.422-4.041-0.425
			c-10.539-1.109-12.357,15.27-1.724,16.385c0,0,15.524,1.948,15.7,2.1l48.285,41.931c-1.98-0.085-3.121-0.137-3.202-0.14
			c-4.822-0.207-9.191,4.127-8.552,9.252c0.452,3.607,3.207,22.032,13.185,30.584c17.639,15.118,40.691,27.504,52.327,48.457
			c1.4,2.521,4.016,4.124,6.897,4.232c2.916,0.107,184.956,6.696,385.844,6.696c121.761,0,250.448-2.419,350.37-10.171
			c3.092-0.241,5.787-2.196,6.974-5.06c7.904-19.08,30.193-71.096,38.294-82.519c12.062-17.012,39.19-40.015,50.775-49.84
			c2.814-2.387,6.199-4.694,8.071-7.95l85.381-68.306c2.684-2.275,38.108-20.648,38.284-20.737
			C1150.322,741.813,1150.834,736.967,1149.034,733.278z M377.23,426.891l0.876,10.945c-17.524,1.07-33.771,1.567-46.858,1.778
			C343.962,434.754,359.845,429.798,377.23,426.891z M394.542,436.683l-0.949-11.849c25.669-2.262,49.634-0.706,65.864,1.124
			l0.295,2.01C439.304,432.189,416.446,434.927,394.542,436.683z M668.784,481.836l-1.809-14.923
			c0.281-0.02,0.564-0.048,0.845-0.067c45.618-3.078,80.243-0.079,102.168,3.237C738.831,474.994,703.144,478.852,668.784,481.836z
			 M650.574,468.513l1.781,14.693c-35.443,2.841-68.369,4.751-91.988,5.935C584.57,481.412,617.304,472.584,650.574,468.513z
			 M410.498,842.435l2.068,25.837l-30.004,1.478l-11.417-8.882c-1.535-1.193-3.457-1.765-5.387-1.73l-79.022,3.161
			C308.712,856.31,351.382,846.693,410.498,842.435z M609.24,667.9l7.181,12.926c-26.464,2.434-51.785,4.69-72.16,6.479
			C562.378,680.982,584.549,674.031,609.24,667.9z M628.353,679.724c-0.031-0.061-0.047-0.126-0.08-0.186l-7.94-14.293
			c15.6-3.596,32.063-6.8,49.046-9.277l2.185,19.663C657.401,677.004,642.799,678.383,628.353,679.724z M687.961,674.024
			l-2.243-20.191c23.473-2.691,47.692-3.837,71.771-2.601l5.288,14.583C745.689,668.089,718.529,670.994,687.961,674.024z
			 M399.646,706.882l0.909,11.363c-27.15,2.678-66.015,6.193-98.764,7.925C326.518,718.824,361.004,710.527,399.646,706.882z
			 M416.95,716.589l-0.876-10.947c4.509-0.254,9.065-0.424,13.652-0.529l0.04,10.124C426.767,715.56,422.393,716.026,416.95,716.589
			z M393.153,625.786l0.712,8.893c-20.351,1.386-40.02,1.905-56.943,1.993C354.203,632.346,373.448,628.359,393.153,625.786z
			 M410.288,633.37l-0.75-9.362c6.638-0.57,13.275-0.951,19.86-1.093l0.033,8.396C423.079,632.101,416.68,632.784,410.288,633.37z
			 M442.559,541.577c-9.975,1.393-23.799,2.745-39.299,4.008l-0.954-11.912c12.789-0.821,25.999-0.954,39.341-0.111L442.559,541.577
			z M385.893,535.104l0.94,11.744c-27.623,2.014-57.824,3.721-80.103,4.881C325.826,545.838,353.982,538.62,385.893,535.104z
			 M638.166,866.325l-2.043-9.193c-0.922-4.148-4.846-6.913-9.064-6.388l-91.89,11.485l-106.14,5.23l-2.084-26.036
			c23.792-1.232,49.927-1.557,78.213-0.463c0.241,1.359,0.478,2.72,0.727,4.075c0.916,4.995,6.735,8.077,11.373,6.079
			c0.778-0.338,73.212-31.261,166.072-41.179l4.47,47.899C663.945,861.461,648.589,864.007,638.166,866.325z M704.116,855.381
			l-4.382-46.95c65.677-10.413,144.337,9.075,163.931,19.592C820.761,836.466,745.924,850.458,704.116,855.381z M880.52,821.397
			l-7.773-44.694c0,0,86.64,23.327,86.64,23.327c3.025,0.822,3.161,0.235,5.625,2.39c0.521,0.456,3.643,3.879,4.277,3.742
			c-22.457,4.859-54.048,11.559-88.872,18.535C880.668,823.633,880.714,822.513,880.52,821.397z M996.978,800.096
			c-3.514,0.781-8.356,1.851-14.333,3.159l-12.904-11.29c-0.028-2.019-0.772-4.015-2.235-5.558l-28.297-29.842
			c38.837,7.741,77.949,17.536,81.42,15.994l11.019,10.202L996.978,800.096z M1042.147,777.511l-14-12.962
			c0.035-2.227-0.824-4.434-2.505-6.058c-6.874-6.636-18.495-17.818-28.902-27.644c21.66,3.948,43.485,8.755,63.943,14.601
			c0.6,0.171,5.507-0.304,5.416-0.386l14.624,13.162L1042.147,777.511z M1091.277,752.947l-20.816-18.735
			c-0.424-0.962-1.014-1.862-1.808-2.626c-0.972-0.933-15.177-14.566-29.888-27.981c37.527,11.443,59.944,22.596,60.406,22.829
			c1.63,0.825,3.782,1.105,5.74,0.61l13.315,12.427L1091.277,752.947z M633.334,350.05l0.956,6.693
			c-18.775,1.71-36.299,2.985-50.937,3.912C598.371,356.361,615.829,352.255,633.334,350.05z M650.707,355.163l-0.939-6.572
			c7.221-1.271,29.189-1.625,43.854,1.504C679.323,352.052,664.809,353.729,650.707,355.163z M142.488,854.583l-10.236,30.167
			l-40.944-35.555L142.488,854.583z M153.688,855.762l92.155,9.7c-1.543,1.184-2.677,2.889-3.08,4.904l-4.43,22.148
			c-4.395-0.216-9.145-0.346-14.383-0.346c-28.172,0-60.537-0.957-82.029-1.727L153.688,855.762z"/>
	</g>
	<path fill="#E8F3FA" d="M785.964,456.066c0,0-38.268-92.802-40.351-97.399c-78.704,9.912-171.075,19.232-196.721,20.345
		l-19.786,103.404c25.592-9.501,82.01-28.251,137.604-32.008C724.521,446.501,765.051,451.917,785.964,456.066z"/>
	<path fill="#E8F3FA" d="M1002.634,694.139c-0.143-0.11-0.253-0.246-0.388-0.363c-35.437-8.286-78.767-14.89-126.868-14.89
		c-1.982,0-3.955,0.011-5.953,0.035c-0.032,0-0.063,0-0.095,0c-3.69,0-6.935-2.456-7.932-6.018
		c-0.231-0.825-11.774-41.927-26.414-87.81c-0.409-0.2-0.815-0.415-1.197-0.689c-0.315-0.228-23.22-16.691-44.092-30.876
		c16.094,40.887,47.835,121.449,56.84,143.741c22.081,1.113,108.826,6.444,187.522,24.387
		C1022.775,711.23,1010.074,699.806,1002.634,694.139z"/>
	<path fill="#E8F3FA" d="M748.384,342.367l-28.967-74.935c-34.134,1.13-118.517,4.883-155.417,6.546l-16.303,80.88
		c21.308-7.763,63.047-21.096,102.313-22.781C687.992,330.442,727.284,337.639,748.384,342.367z"/>
	<path fill="#E8F3FA" d="M467.945,410.357l-26.773-56.463c-42.575-0.018-95.887,10.084-120.396,15.263l-12.431,62.154
		c16.78-7.734,45.509-18.822,78.371-22.362C419.788,405.391,450.261,408.008,467.945,410.357z"/>
	<path fill="#E8F3FA" d="M484.865,704.987c-0.005-0.005-8.333,0-8.333,0c-4.854,0-7.444-3.807-7.74-5.864
		c-0.028-0.194-12.099-84.188-12.099-84.188c-0.511-0.101-10.866-4.203-10.866-4.203l0.681,171.212
		c12.252-1.169,33.752-1.746,50.982,5.383c-3.998-35.137-5.741-65.712-6.39-79.612C491.046,707.716,487.977,707.666,484.865,704.987
		z"/>
	<path fill="#E8F3FA" d="M514.797,502.972c-0.618-0.282-1.197-0.663-1.723-1.118c-2.2-1.903-3.486-5.11-2.953-7.894
		c0.017-0.091,3.475-18.16,3.475-18.16l-34.67-30.651l19.917,118.863L514.797,502.972z"/>
	<path fill="#E8F3FA" d="M466.351,604.933l12.8,89.07h4.119l9.874-86.899c-6.072-4.252-2.364-12.244-0.903-17.834l-13.231-73.275
		c-1.574-0.152-3.108-0.748-4.394-1.788l-20.473-16.551L466.351,604.933z"/>
	<path fill="#E8F3FA" d="M720.898,550.243c-1.022-3.212-0.001-6.737,2.629-8.879c2.716-2.21,6.536-2.464,9.52-0.628
		c1.437,0.884,25.458,15.691,45.462,29.359c-7.505-19.062-12.924-32.845-13.652-34.695c-1.299-3.304-0.335-7.069,2.392-9.343
		c2.726-2.269,6.602-2.548,9.619-0.67c13.618,8.453,34.787,23.149,49.596,33.591c-9.824-29.4-20.269-58.039-29.257-76.921
		c-88.312,17.14-234.745,23.666-266.425,24.912l-21.075,80.637C545.036,575.998,637.351,548.735,720.898,550.243z"/>
	<path fill="#E8F3FA" d="M566.616,589.027c-0.65,0-1.274-0.093-1.88-0.236c-24.472,6.352-43.968,12.528-54.759,16.127l-9.236,81.273
		c36.688-15.427,142.78-55.321,250.685-51.683l-20.084-55.389C660.558,588.904,567.565,589.027,566.616,589.027z"/>
	<path fill="#E8F3FA" d="M869.046,726.311c14.396,2.215,84.663,16.307,124.671,24.392c-12.336-11.751-22.952-21.688-26.613-24.776
		c-67.195-10.128-125.653-12.409-126.504-12.44c-3.202-0.118-6.046-2.081-7.289-5.036c-3.567-8.469-25.398-63.738-43.479-109.612
		c-0.127-0.096-0.266-0.166-0.389-0.271c-8.967-7.686-29.238-21.086-44.782-31.045l63.342,174.685l127.417,34.306l-22.126-23.333
		c-0.58-0.612-1.01-1.303-1.366-2.021c-21.297-4.189-39.098-7.598-45.385-8.566c-4.497-0.692-7.582-4.897-6.89-9.394
		C860.344,728.703,864.561,725.609,869.046,726.311z"/>
	<path fill="#E8F3FA" d="M1066.109,695.04c-51.721-45.368-159.532-133.095-246.416-202.617
		c22.547,54.754,48.872,145.455,55.859,169.987C957.935,662.408,1025.686,680.715,1066.109,695.04z"/>
	<path fill="#E8F3FA" d="M861.751,809.635l-6.548-37.656l-55.625-14.976c-2.596-0.697-4.688-2.62-5.603-5.146l-25.453-70.195
		c-53.2,7.427-221.852,22.026-260.961,25.372c0.914,19.611,4.053,73.134,12.779,125.072c25.362-9.799,97.55-34.902,184.419-40.565
		C783.352,786.412,837.52,801.022,861.751,809.635z"/>
	<path fill="#E8F3FA" d="M439.756,516.933l-4.256-37.397c-0.815-7.167,7.735-11.89,13.365-7.337
		c0.024,0.019,19.719,15.942,19.719,15.942l-6.435-43.841c-52.055,10.607-116.965,11.959-146.503,11.959
		c-5.268,0-9.363-0.044-12.106-0.084l-15.137,84.151C314.735,531.139,374.92,513.444,439.756,516.933z"/>
	<path fill="#DE8D62" d="M939.858,847.079c-1.183,0.59-2.44,0.872-3.678,0.872c-8.436,0-11.165-11.872-3.691-15.61
		c0.017-0.009,5.174-2.587,5.174-2.587c-56.561,11.896-137.052,27.997-200.045,37.314
		c-106.551,15.757-106.551,15.757-116.964,25.518c-1.081,1.014-2.413,1.716-3.859,2.035c-1.124,0.247-114.915,24.741-338.324,24.011
		c-2.369-0.008-4.602-1.035-6.149-2.789c-1.022-0.759-10.803-7.2-48.373-7.2c-35.203,0-76.863-1.48-96.089-2.247
		c1.361,4.403,3.23,8.552,5.41,10.418c5.589,4.79,11.735,8.98,17.531,13.514c20.074,0.698,193.161,6.311,332.927-1.216
		c2.99-0.174,5.615,2.159,5.779,5.189c0.164,3.028-2.16,5.615-5.189,5.779c-54.98,2.961-115.101,3.894-169.075,3.894
		c-66.577,0-123.785-1.42-150.576-2.214c8.432,7.413,16.583,15.642,22.116,23.943c48.016,1.663,474.132,15.626,724.905-3.21
		c7.008-16.731,28.73-67.816,38.125-81.066c13.263-18.704,53.526-52.584,57.399-56.146c-0.49-2.051-2.551-5.787-5.081-9.34
		L939.858,847.079z M872.205,898.519c-79.958,14.156-204.586,24.575-220.959,25.904c-6.327,0.514-7.076-10.469-0.402-10.968
		c47.84-3.577,139.964-11.681,219.449-25.755C877.303,886.491,879.182,897.284,872.205,898.519z"/>
	<path fill="#E8F3FA" d="M250.766,794.043l-134.92-34.514c1.593,35.713-16.04,59.616-29.607,72.567l170.628,17.96
		C254.049,832.719,252.101,812.586,250.766,794.043z"/>
	<path fill="#E8F3FA" d="M245.896,710.4c-0.536-0.195-80.022-62.708-80.022-62.708c-3.394,45.2-30.42,84.407-44.433,101.931
		l128.551,32.885C248.511,758.463,248.25,734.386,245.896,710.4z"/>
	<path fill="#E8F3FA" d="M228.828,536.497c-24.101,54.783-51.483,87.588-61.397,98.437l77.017,60.711L228.828,536.497z"/>
	<path fill="#C46B57" d="M1022.427,818.84l43.486-34.789l-48.857,24.428C1019.098,811.534,1021.125,815.128,1022.427,818.84z"/>
	<path fill="#E8F3FA" d="M429.301,598.493c-0.022-5.773,5.992-9.842,11.346-7.661c0.009,0.003,7.881,3.21,7.881,3.21l-4.107-36.1
		c-40.564,5.591-137.122,10.339-163.565,11.568c-2.295,13.443-7.337,45.288-8.022,69.32c26.056-9.401,92.806-31.114,156.499-32.409
		L429.301,598.493z"/>
	<g>
		<path fill="#C46B57" d="M431.502,898.354c39.322-2.173,72.239-5.026,98.827-7.89l-1.575-11.422l-98.41,4.848L431.502,898.354z"/>
		<path fill="#C46B57" d="M546.705,888.613c36.293-4.32,57.82-8.325,64.385-9.636c3.576-3.311,6.499-5.739,11.26-7.875l-0.684-3.079
			l-76.481,9.561L546.705,888.613z"/>
		<path fill="#C46B57" d="M281.529,902.165c50.178,0.085,94.676-1.093,133.514-2.961l-1.161-14.503l-33.561,1.653
			c-1.98,0.137-3.906-0.518-5.462-1.724l-11.452-8.908l-105.76,4.232l-2.804,14.022C269.537,895.979,277.39,899.305,281.529,902.165
			z"/>
	</g>
	<path fill="#E8F3FA" d="M502.416,824.379c-0.85-5.523-1.64-11.033-2.375-16.497c-14.688-13.192-48.43-10.602-60.272-8.469
		c-4.972,0.922-9.679-3.034-9.699-8.074c0-0.089-0.237-59.534-0.237-59.534c-25.274,2.726-118.126,12.355-165.139,11.884
		c0.641,19.866,2.766,69.819,8.678,105.246C299.778,840.901,381.038,820.095,502.416,824.379z"/>
	<path fill="#E8F3FA" d="M429.498,647.903c-32.485,3.919-65.334,5.253-98.039,5.253c-23.932,0-41.509-0.802-46.555-1.059
		c-4.364,1.501-8.036,2.818-10.818,3.844c-0.986,9.033-4.116,38.511-5.823,63.867c25.68-9.433,88.644-29.581,161.397-31.183
		L429.498,647.903z"/>
</g>
</svg>
