<svg width="890" height="1115" viewBox="0 0 890 1115" fill="none" xmlns="http://www.w3.org/2000/svg">
    <path
        d="M1.96726 93.2743C1.96726 93.2743 -2.45908 258.313 1.96726 431.573C5.76126 604.832 116.42 793.9 185.976 876.104C212.534 907.72 256.798 949.454 301.061 989.924V6.64453C231.505 15.4972 1.96726 93.2743 1.96726 93.2743Z"
        fill="#95060D" />
    <path
        d="M888.033 93.2743C888.033 93.2743 892.459 258.313 888.033 431.573C883.606 604.832 772.948 793.9 703.391 876.104C676.833 907.72 633.202 949.454 588.307 989.924V6.64453C657.863 15.4972 888.033 93.2743 888.033 93.2743Z"
        fill="#95060D" />
    <path
        d="M300.062 6.63951V989.919C372.149 1055.05 445.499 1114.49 445.499 1114.49C445.499 1114.49 518.218 1055.05 590.304 989.919V6.63951C521.379 -2.21317 369.619 -2.21317 300.062 6.63951Z"
        fill="#95060D" />
    <path
        d="M83.3441 149.059C83.3441 149.059 79.6563 290.48 83.3441 438.945C86.5051 587.411 178.7 749.422 236.651 819.862C258.777 846.954 301.122 897.835 338 932.513L332.533 74.8262C274.582 82.412 83.3441 149.059 83.3441 149.059Z"
        fill="#F8EDCF" />
    <path
        d="M814.355 150.2C814.355 150.2 818.043 291.621 814.355 440.086C810.667 588.552 718.472 750.563 660.521 821.003C638.395 848.095 592.344 892.819 554.939 927.497L541.5 73.9874C600 73.9874 814.355 150.2 814.355 150.2Z"
        fill="#F8EDCF" />
    <path
        d="M324 76.1869L322.825 918.529C382.883 974.339 443.995 1025.27 443.995 1025.27C443.995 1025.27 504.58 974.339 564.638 918.529L566 76.4947C508.576 68.9089 382.5 64 324 76.1869Z"
        fill="#F8EDCF" />
</svg>